M48
; DRILL file {KiCad (5.1.8)-1} date 11/13/20 00:22:48
; FORMAT={-:-/ absolute / inch / decimal}
; #@! TF.CreationDate,2020-11-13T00:22:48+01:00
; #@! TF.GenerationSoftware,Kicad,Pcbnew,(5.1.8)-1
; #@! TF.FileFunction,Plated,1,2,PTH
FMAT,2
INCH
T1C0.0236
T2C0.0295
T3C0.0315
T4C0.0354
T5C0.0394
T6C0.0440
T7C0.0461
T8C0.0591
%
G90
G05
T1
X6.47Y-4.89
X6.5291Y-4.89
T2
X6.99Y-4.82
X6.99Y-4.87
X6.99Y-4.92
T3
X6.16Y-4.2
X6.16Y-4.5
X6.86Y-4.2
X6.86Y-4.5
X6.58Y-4.2
X6.58Y-4.5
X6.3Y-4.2
X6.3Y-4.5
X6.691Y-4.871
X6.7697Y-4.871
X6.72Y-4.2
X6.72Y-4.5
X6.02Y-4.2
X6.02Y-4.5
X6.44Y-4.2
X6.44Y-4.5
T4
X5.81Y-2.75
X5.81Y-2.85
X6.31Y-2.75
X6.31Y-2.85
X6.3931Y-4.05
X6.4916Y-4.05
X6.59Y-4.05
T5
X6.02Y-4.62
X6.02Y-4.72
X6.02Y-4.82
X6.02Y-4.92
X6.32Y-4.62
X6.32Y-4.72
X6.32Y-4.82
X6.32Y-4.92
T6
X7.02Y-4.12
X7.02Y-4.692
T7
X5.48Y-4.82
T8
X5.48Y-4.0326
T0
M30
