%TF.GenerationSoftware,KiCad,Pcbnew,(5.1.8)-1*%
%TF.CreationDate,2020-11-13T01:10:14+01:00*%
%TF.ProjectId,Emoji_Badge_StuCo,456d6f6a-695f-4426-9164-67655f537475,v01*%
%TF.SameCoordinates,Original*%
%TF.FileFunction,Legend,Top*%
%TF.FilePolarity,Positive*%
%FSLAX46Y46*%
G04 Gerber Fmt 4.6, Leading zero omitted, Abs format (unit mm)*
G04 Created by KiCad (PCBNEW (5.1.8)-1) date 2020-11-13 01:10:14*
%MOMM*%
%LPD*%
G01*
G04 APERTURE LIST*
%ADD10C,0.254000*%
%ADD11C,0.120000*%
%ADD12C,0.300000*%
%ADD13C,0.100000*%
%ADD14C,0.152400*%
%ADD15C,0.150000*%
G04 APERTURE END LIST*
D10*
X162306000Y-125984000D02*
G75*
G03*
X162306000Y-125984000I-127000J0D01*
G01*
D11*
X155448000Y-126365000D02*
G75*
G02*
X157988000Y-126365000I1270000J0D01*
G01*
D12*
X166973428Y-99635571D02*
X167259142Y-99635571D01*
X167402000Y-99707000D01*
X167544857Y-99849857D01*
X167616285Y-100135571D01*
X167616285Y-100635571D01*
X167544857Y-100921285D01*
X167402000Y-101064142D01*
X167259142Y-101135571D01*
X166973428Y-101135571D01*
X166830571Y-101064142D01*
X166687714Y-100921285D01*
X166616285Y-100635571D01*
X166616285Y-100135571D01*
X166687714Y-99849857D01*
X166830571Y-99707000D01*
X166973428Y-99635571D01*
X168759142Y-100349857D02*
X168259142Y-100349857D01*
X168259142Y-101135571D02*
X168259142Y-99635571D01*
X168973428Y-99635571D01*
X170044857Y-100349857D02*
X169544857Y-100349857D01*
X169544857Y-101135571D02*
X169544857Y-99635571D01*
X170259142Y-99635571D01*
X160869428Y-99635571D02*
X161155142Y-99635571D01*
X161298000Y-99707000D01*
X161440857Y-99849857D01*
X161512285Y-100135571D01*
X161512285Y-100635571D01*
X161440857Y-100921285D01*
X161298000Y-101064142D01*
X161155142Y-101135571D01*
X160869428Y-101135571D01*
X160726571Y-101064142D01*
X160583714Y-100921285D01*
X160512285Y-100635571D01*
X160512285Y-100135571D01*
X160583714Y-99849857D01*
X160726571Y-99707000D01*
X160869428Y-99635571D01*
X162155142Y-101135571D02*
X162155142Y-99635571D01*
X163012285Y-101135571D01*
X163012285Y-99635571D01*
X137096428Y-102723142D02*
X135953571Y-102723142D01*
X136525000Y-103294571D02*
X136525000Y-102151714D01*
D11*
%TO.C,D2*%
X148654000Y-72680000D02*
X148810000Y-72680000D01*
X146338000Y-72680000D02*
X146494000Y-72680000D01*
X148653837Y-70078870D02*
G75*
G02*
X148654000Y-72160961I-1079837J-1041130D01*
G01*
X146494163Y-70078870D02*
G75*
G03*
X146494000Y-72160961I1079837J-1041130D01*
G01*
X148652608Y-69447665D02*
G75*
G02*
X148809516Y-72680000I-1078608J-1672335D01*
G01*
X146495392Y-69447665D02*
G75*
G03*
X146338484Y-72680000I1078608J-1672335D01*
G01*
%TO.C,D1*%
X161354000Y-72680000D02*
X161510000Y-72680000D01*
X159038000Y-72680000D02*
X159194000Y-72680000D01*
X161353837Y-70078870D02*
G75*
G02*
X161354000Y-72160961I-1079837J-1041130D01*
G01*
X159194163Y-70078870D02*
G75*
G03*
X159194000Y-72160961I1079837J-1041130D01*
G01*
X161352608Y-69447665D02*
G75*
G02*
X161509516Y-72680000I-1078608J-1672335D01*
G01*
X159195392Y-69447665D02*
G75*
G03*
X159038484Y-72680000I1078608J-1672335D01*
G01*
D13*
%TO.C,BAT1*%
X150418800Y-114960400D02*
G75*
G03*
X150418800Y-114960400I-11226800J0D01*
G01*
X135280400Y-104394000D02*
X135280400Y-101650800D01*
X143103600Y-104394000D02*
X143103600Y-101650800D01*
X135280400Y-101650800D02*
X138125200Y-101650800D01*
X143103600Y-101650800D02*
X140258800Y-101650800D01*
D11*
%TO.C,C1*%
X163018199Y-122811000D02*
X163018199Y-123211000D01*
X162818199Y-123011000D02*
X163218199Y-123011000D01*
X167169000Y-123836000D02*
X167169000Y-124576000D01*
X167129000Y-123669000D02*
X167129000Y-124743000D01*
X167089000Y-123542000D02*
X167089000Y-124870000D01*
X167049000Y-123438000D02*
X167049000Y-124974000D01*
X167009000Y-123347000D02*
X167009000Y-125065000D01*
X166969000Y-123266000D02*
X166969000Y-125146000D01*
X166929000Y-123193000D02*
X166929000Y-125219000D01*
X166889000Y-123126000D02*
X166889000Y-125286000D01*
X166849000Y-123064000D02*
X166849000Y-125348000D01*
X166809000Y-123006000D02*
X166809000Y-125406000D01*
X166769000Y-122952000D02*
X166769000Y-125460000D01*
X166729000Y-122902000D02*
X166729000Y-125510000D01*
X166689000Y-122855000D02*
X166689000Y-125557000D01*
X166649000Y-125046000D02*
X166649000Y-125602000D01*
X166649000Y-122810000D02*
X166649000Y-123366000D01*
X166609000Y-125046000D02*
X166609000Y-125644000D01*
X166609000Y-122768000D02*
X166609000Y-123366000D01*
X166569000Y-125046000D02*
X166569000Y-125684000D01*
X166569000Y-122728000D02*
X166569000Y-123366000D01*
X166529000Y-125046000D02*
X166529000Y-125722000D01*
X166529000Y-122690000D02*
X166529000Y-123366000D01*
X166489000Y-125046000D02*
X166489000Y-125758000D01*
X166489000Y-122654000D02*
X166489000Y-123366000D01*
X166449000Y-125046000D02*
X166449000Y-125793000D01*
X166449000Y-122619000D02*
X166449000Y-123366000D01*
X166409000Y-125046000D02*
X166409000Y-125825000D01*
X166409000Y-122587000D02*
X166409000Y-123366000D01*
X166369000Y-125046000D02*
X166369000Y-125856000D01*
X166369000Y-122556000D02*
X166369000Y-123366000D01*
X166329000Y-125046000D02*
X166329000Y-125886000D01*
X166329000Y-122526000D02*
X166329000Y-123366000D01*
X166289000Y-125046000D02*
X166289000Y-125914000D01*
X166289000Y-122498000D02*
X166289000Y-123366000D01*
X166249000Y-125046000D02*
X166249000Y-125941000D01*
X166249000Y-122471000D02*
X166249000Y-123366000D01*
X166209000Y-125046000D02*
X166209000Y-125966000D01*
X166209000Y-122446000D02*
X166209000Y-123366000D01*
X166169000Y-125046000D02*
X166169000Y-125991000D01*
X166169000Y-122421000D02*
X166169000Y-123366000D01*
X166129000Y-125046000D02*
X166129000Y-126014000D01*
X166129000Y-122398000D02*
X166129000Y-123366000D01*
X166089000Y-125046000D02*
X166089000Y-126036000D01*
X166089000Y-122376000D02*
X166089000Y-123366000D01*
X166049000Y-125046000D02*
X166049000Y-126057000D01*
X166049000Y-122355000D02*
X166049000Y-123366000D01*
X166009000Y-125046000D02*
X166009000Y-126076000D01*
X166009000Y-122336000D02*
X166009000Y-123366000D01*
X165969000Y-125046000D02*
X165969000Y-126095000D01*
X165969000Y-122317000D02*
X165969000Y-123366000D01*
X165929000Y-125046000D02*
X165929000Y-126113000D01*
X165929000Y-122299000D02*
X165929000Y-123366000D01*
X165889000Y-125046000D02*
X165889000Y-126130000D01*
X165889000Y-122282000D02*
X165889000Y-123366000D01*
X165849000Y-125046000D02*
X165849000Y-126146000D01*
X165849000Y-122266000D02*
X165849000Y-123366000D01*
X165809000Y-125046000D02*
X165809000Y-126160000D01*
X165809000Y-122252000D02*
X165809000Y-123366000D01*
X165768000Y-125046000D02*
X165768000Y-126174000D01*
X165768000Y-122238000D02*
X165768000Y-123366000D01*
X165728000Y-125046000D02*
X165728000Y-126188000D01*
X165728000Y-122224000D02*
X165728000Y-123366000D01*
X165688000Y-125046000D02*
X165688000Y-126200000D01*
X165688000Y-122212000D02*
X165688000Y-123366000D01*
X165648000Y-125046000D02*
X165648000Y-126211000D01*
X165648000Y-122201000D02*
X165648000Y-123366000D01*
X165608000Y-125046000D02*
X165608000Y-126222000D01*
X165608000Y-122190000D02*
X165608000Y-123366000D01*
X165568000Y-125046000D02*
X165568000Y-126231000D01*
X165568000Y-122181000D02*
X165568000Y-123366000D01*
X165528000Y-125046000D02*
X165528000Y-126240000D01*
X165528000Y-122172000D02*
X165528000Y-123366000D01*
X165488000Y-125046000D02*
X165488000Y-126248000D01*
X165488000Y-122164000D02*
X165488000Y-123366000D01*
X165448000Y-125046000D02*
X165448000Y-126256000D01*
X165448000Y-122156000D02*
X165448000Y-123366000D01*
X165408000Y-125046000D02*
X165408000Y-126262000D01*
X165408000Y-122150000D02*
X165408000Y-123366000D01*
X165368000Y-125046000D02*
X165368000Y-126268000D01*
X165368000Y-122144000D02*
X165368000Y-123366000D01*
X165328000Y-125046000D02*
X165328000Y-126273000D01*
X165328000Y-122139000D02*
X165328000Y-123366000D01*
X165288000Y-125046000D02*
X165288000Y-126277000D01*
X165288000Y-122135000D02*
X165288000Y-123366000D01*
X165248000Y-125046000D02*
X165248000Y-126280000D01*
X165248000Y-122132000D02*
X165248000Y-123366000D01*
X165208000Y-125046000D02*
X165208000Y-126283000D01*
X165208000Y-122129000D02*
X165208000Y-123366000D01*
X165168000Y-122127000D02*
X165168000Y-123366000D01*
X165168000Y-125046000D02*
X165168000Y-126285000D01*
X165128000Y-122126000D02*
X165128000Y-123366000D01*
X165128000Y-125046000D02*
X165128000Y-126286000D01*
X165088000Y-122126000D02*
X165088000Y-123366000D01*
X165088000Y-125046000D02*
X165088000Y-126286000D01*
X167208000Y-124206000D02*
G75*
G03*
X167208000Y-124206000I-2120000J0D01*
G01*
%TO.C,C2*%
X173571400Y-123723400D02*
G75*
G03*
X173571400Y-123723400I-2620000J0D01*
G01*
X170951400Y-124763400D02*
X170951400Y-126303400D01*
X170951400Y-121143400D02*
X170951400Y-122683400D01*
X170991400Y-124763400D02*
X170991400Y-126303400D01*
X170991400Y-121143400D02*
X170991400Y-122683400D01*
X171031400Y-121144400D02*
X171031400Y-122683400D01*
X171031400Y-124763400D02*
X171031400Y-126302400D01*
X171071400Y-121145400D02*
X171071400Y-122683400D01*
X171071400Y-124763400D02*
X171071400Y-126301400D01*
X171111400Y-121147400D02*
X171111400Y-122683400D01*
X171111400Y-124763400D02*
X171111400Y-126299400D01*
X171151400Y-121150400D02*
X171151400Y-122683400D01*
X171151400Y-124763400D02*
X171151400Y-126296400D01*
X171191400Y-121154400D02*
X171191400Y-122683400D01*
X171191400Y-124763400D02*
X171191400Y-126292400D01*
X171231400Y-121158400D02*
X171231400Y-122683400D01*
X171231400Y-124763400D02*
X171231400Y-126288400D01*
X171271400Y-121162400D02*
X171271400Y-122683400D01*
X171271400Y-124763400D02*
X171271400Y-126284400D01*
X171311400Y-121167400D02*
X171311400Y-122683400D01*
X171311400Y-124763400D02*
X171311400Y-126279400D01*
X171351400Y-121173400D02*
X171351400Y-122683400D01*
X171351400Y-124763400D02*
X171351400Y-126273400D01*
X171391400Y-121180400D02*
X171391400Y-122683400D01*
X171391400Y-124763400D02*
X171391400Y-126266400D01*
X171431400Y-121187400D02*
X171431400Y-122683400D01*
X171431400Y-124763400D02*
X171431400Y-126259400D01*
X171471400Y-121195400D02*
X171471400Y-122683400D01*
X171471400Y-124763400D02*
X171471400Y-126251400D01*
X171511400Y-121203400D02*
X171511400Y-122683400D01*
X171511400Y-124763400D02*
X171511400Y-126243400D01*
X171551400Y-121212400D02*
X171551400Y-122683400D01*
X171551400Y-124763400D02*
X171551400Y-126234400D01*
X171591400Y-121222400D02*
X171591400Y-122683400D01*
X171591400Y-124763400D02*
X171591400Y-126224400D01*
X171631400Y-121232400D02*
X171631400Y-122683400D01*
X171631400Y-124763400D02*
X171631400Y-126214400D01*
X171672400Y-121243400D02*
X171672400Y-122683400D01*
X171672400Y-124763400D02*
X171672400Y-126203400D01*
X171712400Y-121255400D02*
X171712400Y-122683400D01*
X171712400Y-124763400D02*
X171712400Y-126191400D01*
X171752400Y-121268400D02*
X171752400Y-122683400D01*
X171752400Y-124763400D02*
X171752400Y-126178400D01*
X171792400Y-121281400D02*
X171792400Y-122683400D01*
X171792400Y-124763400D02*
X171792400Y-126165400D01*
X171832400Y-121295400D02*
X171832400Y-122683400D01*
X171832400Y-124763400D02*
X171832400Y-126151400D01*
X171872400Y-121309400D02*
X171872400Y-122683400D01*
X171872400Y-124763400D02*
X171872400Y-126137400D01*
X171912400Y-121325400D02*
X171912400Y-122683400D01*
X171912400Y-124763400D02*
X171912400Y-126121400D01*
X171952400Y-121341400D02*
X171952400Y-122683400D01*
X171952400Y-124763400D02*
X171952400Y-126105400D01*
X171992400Y-121358400D02*
X171992400Y-122683400D01*
X171992400Y-124763400D02*
X171992400Y-126088400D01*
X172032400Y-121375400D02*
X172032400Y-122683400D01*
X172032400Y-124763400D02*
X172032400Y-126071400D01*
X172072400Y-121394400D02*
X172072400Y-122683400D01*
X172072400Y-124763400D02*
X172072400Y-126052400D01*
X172112400Y-121413400D02*
X172112400Y-122683400D01*
X172112400Y-124763400D02*
X172112400Y-126033400D01*
X172152400Y-121433400D02*
X172152400Y-122683400D01*
X172152400Y-124763400D02*
X172152400Y-126013400D01*
X172192400Y-121455400D02*
X172192400Y-122683400D01*
X172192400Y-124763400D02*
X172192400Y-125991400D01*
X172232400Y-121476400D02*
X172232400Y-122683400D01*
X172232400Y-124763400D02*
X172232400Y-125970400D01*
X172272400Y-121499400D02*
X172272400Y-122683400D01*
X172272400Y-124763400D02*
X172272400Y-125947400D01*
X172312400Y-121523400D02*
X172312400Y-122683400D01*
X172312400Y-124763400D02*
X172312400Y-125923400D01*
X172352400Y-121548400D02*
X172352400Y-122683400D01*
X172352400Y-124763400D02*
X172352400Y-125898400D01*
X172392400Y-121574400D02*
X172392400Y-122683400D01*
X172392400Y-124763400D02*
X172392400Y-125872400D01*
X172432400Y-121601400D02*
X172432400Y-122683400D01*
X172432400Y-124763400D02*
X172432400Y-125845400D01*
X172472400Y-121628400D02*
X172472400Y-122683400D01*
X172472400Y-124763400D02*
X172472400Y-125818400D01*
X172512400Y-121658400D02*
X172512400Y-122683400D01*
X172512400Y-124763400D02*
X172512400Y-125788400D01*
X172552400Y-121688400D02*
X172552400Y-122683400D01*
X172552400Y-124763400D02*
X172552400Y-125758400D01*
X172592400Y-121719400D02*
X172592400Y-122683400D01*
X172592400Y-124763400D02*
X172592400Y-125727400D01*
X172632400Y-121752400D02*
X172632400Y-122683400D01*
X172632400Y-124763400D02*
X172632400Y-125694400D01*
X172672400Y-121786400D02*
X172672400Y-122683400D01*
X172672400Y-124763400D02*
X172672400Y-125660400D01*
X172712400Y-121822400D02*
X172712400Y-122683400D01*
X172712400Y-124763400D02*
X172712400Y-125624400D01*
X172752400Y-121859400D02*
X172752400Y-122683400D01*
X172752400Y-124763400D02*
X172752400Y-125587400D01*
X172792400Y-121897400D02*
X172792400Y-122683400D01*
X172792400Y-124763400D02*
X172792400Y-125549400D01*
X172832400Y-121938400D02*
X172832400Y-122683400D01*
X172832400Y-124763400D02*
X172832400Y-125508400D01*
X172872400Y-121980400D02*
X172872400Y-122683400D01*
X172872400Y-124763400D02*
X172872400Y-125466400D01*
X172912400Y-122024400D02*
X172912400Y-122683400D01*
X172912400Y-124763400D02*
X172912400Y-125422400D01*
X172952400Y-122070400D02*
X172952400Y-122683400D01*
X172952400Y-124763400D02*
X172952400Y-125376400D01*
X172992400Y-122118400D02*
X172992400Y-125328400D01*
X173032400Y-122169400D02*
X173032400Y-125277400D01*
X173072400Y-122223400D02*
X173072400Y-125223400D01*
X173112400Y-122280400D02*
X173112400Y-125166400D01*
X173152400Y-122340400D02*
X173152400Y-125106400D01*
X173192400Y-122404400D02*
X173192400Y-125042400D01*
X173232400Y-122472400D02*
X173232400Y-124974400D01*
X173272400Y-122545400D02*
X173272400Y-124901400D01*
X173312400Y-122625400D02*
X173312400Y-124821400D01*
X173352400Y-122712400D02*
X173352400Y-124734400D01*
X173392400Y-122808400D02*
X173392400Y-124638400D01*
X173432400Y-122918400D02*
X173432400Y-124528400D01*
X173472400Y-123046400D02*
X173472400Y-124400400D01*
X173512400Y-123205400D02*
X173512400Y-124241400D01*
X173552400Y-123439400D02*
X173552400Y-124007400D01*
X168146625Y-122248400D02*
X168646625Y-122248400D01*
X168396625Y-121998400D02*
X168396625Y-122498400D01*
D14*
%TO.C,CR1*%
X178308000Y-103454200D02*
X178308000Y-102184200D01*
X178943000Y-102438200D02*
X177673000Y-102438200D01*
X178308000Y-102438200D02*
X178943000Y-103200200D01*
X178308000Y-102438200D02*
X178816000Y-103200200D01*
X178308000Y-102438200D02*
X178689000Y-103200200D01*
X178308000Y-102438200D02*
X178562000Y-103200200D01*
X178308000Y-102438200D02*
X178435000Y-103200200D01*
X178308000Y-102438200D02*
X177673000Y-103200200D01*
X178308000Y-102438200D02*
X177800000Y-103200200D01*
X178308000Y-102438200D02*
X177927000Y-103200200D01*
X178308000Y-102438200D02*
X178054000Y-103200200D01*
X178308000Y-102438200D02*
X178181000Y-103200200D01*
X178943000Y-103200200D02*
X177673000Y-103200200D01*
X176403000Y-107975400D02*
X176403000Y-115849400D01*
X176403000Y-115849400D02*
X180213000Y-115849400D01*
X180213000Y-115849400D02*
X180213000Y-107975400D01*
X180213000Y-107975400D02*
X176403000Y-107975400D01*
D11*
%TO.C,Q1*%
X175696000Y-121898000D02*
X175696000Y-125498000D01*
X175707522Y-121859522D02*
G75*
G02*
X180146000Y-123698000I1838478J-1838478D01*
G01*
X175707522Y-125536478D02*
G75*
G03*
X180146000Y-123698000I1838478J1838478D01*
G01*
%TO.C,R1*%
X157504000Y-107220000D02*
X157834000Y-107220000D01*
X157834000Y-107220000D02*
X157834000Y-113760000D01*
X157834000Y-113760000D02*
X157504000Y-113760000D01*
X155424000Y-107220000D02*
X155094000Y-107220000D01*
X155094000Y-107220000D02*
X155094000Y-113760000D01*
X155094000Y-113760000D02*
X155424000Y-113760000D01*
%TO.C,R2*%
X158650000Y-113760000D02*
X158980000Y-113760000D01*
X158650000Y-107220000D02*
X158650000Y-113760000D01*
X158980000Y-107220000D02*
X158650000Y-107220000D01*
X161390000Y-113760000D02*
X161060000Y-113760000D01*
X161390000Y-107220000D02*
X161390000Y-113760000D01*
X161060000Y-107220000D02*
X161390000Y-107220000D01*
%TO.C,R3*%
X164616000Y-107220000D02*
X164946000Y-107220000D01*
X164946000Y-107220000D02*
X164946000Y-113760000D01*
X164946000Y-113760000D02*
X164616000Y-113760000D01*
X162536000Y-107220000D02*
X162206000Y-107220000D01*
X162206000Y-107220000D02*
X162206000Y-113760000D01*
X162206000Y-113760000D02*
X162536000Y-113760000D01*
%TO.C,R4*%
X168172000Y-107220000D02*
X168502000Y-107220000D01*
X168502000Y-107220000D02*
X168502000Y-113760000D01*
X168502000Y-113760000D02*
X168172000Y-113760000D01*
X166092000Y-107220000D02*
X165762000Y-107220000D01*
X165762000Y-107220000D02*
X165762000Y-113760000D01*
X165762000Y-113760000D02*
X166092000Y-113760000D01*
%TO.C,R5*%
X169318000Y-113760000D02*
X169648000Y-113760000D01*
X169318000Y-107220000D02*
X169318000Y-113760000D01*
X169648000Y-107220000D02*
X169318000Y-107220000D01*
X172058000Y-113760000D02*
X171728000Y-113760000D01*
X172058000Y-107220000D02*
X172058000Y-113760000D01*
X171728000Y-107220000D02*
X172058000Y-107220000D01*
%TO.C,R6*%
X175284000Y-107220000D02*
X175614000Y-107220000D01*
X175614000Y-107220000D02*
X175614000Y-113760000D01*
X175614000Y-113760000D02*
X175284000Y-113760000D01*
X173204000Y-107220000D02*
X172874000Y-107220000D01*
X172874000Y-107220000D02*
X172874000Y-113760000D01*
X172874000Y-113760000D02*
X173204000Y-113760000D01*
%TO.C,R7*%
X154278000Y-107220000D02*
X153948000Y-107220000D01*
X154278000Y-113760000D02*
X154278000Y-107220000D01*
X153948000Y-113760000D02*
X154278000Y-113760000D01*
X151538000Y-107220000D02*
X151868000Y-107220000D01*
X151538000Y-113760000D02*
X151538000Y-107220000D01*
X151868000Y-113760000D02*
X151538000Y-113760000D01*
D13*
%TO.C,S1*%
X159086000Y-100770000D02*
X159586000Y-100770000D01*
X159086000Y-100770000D02*
X159086000Y-101270000D01*
X170986000Y-100770000D02*
X170486000Y-100770000D01*
X170986000Y-100770000D02*
X170986000Y-101270000D01*
X170986000Y-104970000D02*
X170486000Y-104970000D01*
X170986000Y-104970000D02*
X170986000Y-104470000D01*
X159086000Y-104970000D02*
X159086000Y-104470000D01*
X159086000Y-104970000D02*
X159586000Y-104970000D01*
%TO.C,U1*%
X160128000Y-125868000D02*
X160128000Y-126168000D01*
X160128000Y-126168000D02*
X159828000Y-126168000D01*
X153328000Y-125868000D02*
X153328000Y-126168000D01*
X153328000Y-126168000D02*
X153628000Y-126168000D01*
X153328000Y-116468000D02*
X153328000Y-116168000D01*
X153328000Y-116168000D02*
X153628000Y-116168000D01*
X160128000Y-116468000D02*
X160128000Y-116168000D01*
X160128000Y-116168000D02*
X159828000Y-116168000D01*
%TO.C,D2*%
D15*
X145066380Y-71858095D02*
X144066380Y-71858095D01*
X144066380Y-71620000D01*
X144114000Y-71477142D01*
X144209238Y-71381904D01*
X144304476Y-71334285D01*
X144494952Y-71286666D01*
X144637809Y-71286666D01*
X144828285Y-71334285D01*
X144923523Y-71381904D01*
X145018761Y-71477142D01*
X145066380Y-71620000D01*
X145066380Y-71858095D01*
X144161619Y-70905714D02*
X144114000Y-70858095D01*
X144066380Y-70762857D01*
X144066380Y-70524761D01*
X144114000Y-70429523D01*
X144161619Y-70381904D01*
X144256857Y-70334285D01*
X144352095Y-70334285D01*
X144494952Y-70381904D01*
X145066380Y-70953333D01*
X145066380Y-70334285D01*
%TO.C,D1*%
X157766380Y-71858095D02*
X156766380Y-71858095D01*
X156766380Y-71620000D01*
X156814000Y-71477142D01*
X156909238Y-71381904D01*
X157004476Y-71334285D01*
X157194952Y-71286666D01*
X157337809Y-71286666D01*
X157528285Y-71334285D01*
X157623523Y-71381904D01*
X157718761Y-71477142D01*
X157766380Y-71620000D01*
X157766380Y-71858095D01*
X157766380Y-70334285D02*
X157766380Y-70905714D01*
X157766380Y-70620000D02*
X156766380Y-70620000D01*
X156909238Y-70715238D01*
X157004476Y-70810476D01*
X157052095Y-70905714D01*
%TO.C,BAT1*%
X132135714Y-103433571D02*
X132278571Y-103481190D01*
X132326190Y-103528809D01*
X132373809Y-103624047D01*
X132373809Y-103766904D01*
X132326190Y-103862142D01*
X132278571Y-103909761D01*
X132183333Y-103957380D01*
X131802380Y-103957380D01*
X131802380Y-102957380D01*
X132135714Y-102957380D01*
X132230952Y-103005000D01*
X132278571Y-103052619D01*
X132326190Y-103147857D01*
X132326190Y-103243095D01*
X132278571Y-103338333D01*
X132230952Y-103385952D01*
X132135714Y-103433571D01*
X131802380Y-103433571D01*
X132754761Y-103671666D02*
X133230952Y-103671666D01*
X132659523Y-103957380D02*
X132992857Y-102957380D01*
X133326190Y-103957380D01*
X133516666Y-102957380D02*
X134088095Y-102957380D01*
X133802380Y-103957380D02*
X133802380Y-102957380D01*
X134945238Y-103957380D02*
X134373809Y-103957380D01*
X134659523Y-103957380D02*
X134659523Y-102957380D01*
X134564285Y-103100238D01*
X134469047Y-103195476D01*
X134373809Y-103243095D01*
%TO.C,C1*%
X164679333Y-121515142D02*
X164631714Y-121562761D01*
X164488857Y-121610380D01*
X164393619Y-121610380D01*
X164250761Y-121562761D01*
X164155523Y-121467523D01*
X164107904Y-121372285D01*
X164060285Y-121181809D01*
X164060285Y-121038952D01*
X164107904Y-120848476D01*
X164155523Y-120753238D01*
X164250761Y-120658000D01*
X164393619Y-120610380D01*
X164488857Y-120610380D01*
X164631714Y-120658000D01*
X164679333Y-120705619D01*
X165631714Y-121610380D02*
X165060285Y-121610380D01*
X165346000Y-121610380D02*
X165346000Y-120610380D01*
X165250761Y-120753238D01*
X165155523Y-120848476D01*
X165060285Y-120896095D01*
%TO.C,C2*%
X170784733Y-120524542D02*
X170737114Y-120572161D01*
X170594257Y-120619780D01*
X170499019Y-120619780D01*
X170356161Y-120572161D01*
X170260923Y-120476923D01*
X170213304Y-120381685D01*
X170165685Y-120191209D01*
X170165685Y-120048352D01*
X170213304Y-119857876D01*
X170260923Y-119762638D01*
X170356161Y-119667400D01*
X170499019Y-119619780D01*
X170594257Y-119619780D01*
X170737114Y-119667400D01*
X170784733Y-119715019D01*
X171165685Y-119715019D02*
X171213304Y-119667400D01*
X171308542Y-119619780D01*
X171546638Y-119619780D01*
X171641876Y-119667400D01*
X171689495Y-119715019D01*
X171737114Y-119810257D01*
X171737114Y-119905495D01*
X171689495Y-120048352D01*
X171118066Y-120619780D01*
X171737114Y-120619780D01*
%TO.C,CR1*%
X177641333Y-107545142D02*
X177593714Y-107592761D01*
X177450857Y-107640380D01*
X177355619Y-107640380D01*
X177212761Y-107592761D01*
X177117523Y-107497523D01*
X177069904Y-107402285D01*
X177022285Y-107211809D01*
X177022285Y-107068952D01*
X177069904Y-106878476D01*
X177117523Y-106783238D01*
X177212761Y-106688000D01*
X177355619Y-106640380D01*
X177450857Y-106640380D01*
X177593714Y-106688000D01*
X177641333Y-106735619D01*
X178641333Y-107640380D02*
X178308000Y-107164190D01*
X178069904Y-107640380D02*
X178069904Y-106640380D01*
X178450857Y-106640380D01*
X178546095Y-106688000D01*
X178593714Y-106735619D01*
X178641333Y-106830857D01*
X178641333Y-106973714D01*
X178593714Y-107068952D01*
X178546095Y-107116571D01*
X178450857Y-107164190D01*
X178069904Y-107164190D01*
X179593714Y-107640380D02*
X179022285Y-107640380D01*
X179308000Y-107640380D02*
X179308000Y-106640380D01*
X179212761Y-106783238D01*
X179117523Y-106878476D01*
X179022285Y-106926095D01*
X177760380Y-104648000D02*
X177998476Y-104648000D01*
X177903238Y-104886095D02*
X177998476Y-104648000D01*
X177903238Y-104409904D01*
X178188952Y-104790857D02*
X177998476Y-104648000D01*
X178188952Y-104505142D01*
%TO.C,Q1*%
X175545761Y-121070619D02*
X175450523Y-121023000D01*
X175355285Y-120927761D01*
X175212428Y-120784904D01*
X175117190Y-120737285D01*
X175021952Y-120737285D01*
X175069571Y-120975380D02*
X174974333Y-120927761D01*
X174879095Y-120832523D01*
X174831476Y-120642047D01*
X174831476Y-120308714D01*
X174879095Y-120118238D01*
X174974333Y-120023000D01*
X175069571Y-119975380D01*
X175260047Y-119975380D01*
X175355285Y-120023000D01*
X175450523Y-120118238D01*
X175498142Y-120308714D01*
X175498142Y-120642047D01*
X175450523Y-120832523D01*
X175355285Y-120927761D01*
X175260047Y-120975380D01*
X175069571Y-120975380D01*
X176450523Y-120975380D02*
X175879095Y-120975380D01*
X176164809Y-120975380D02*
X176164809Y-119975380D01*
X176069571Y-120118238D01*
X175974333Y-120213476D01*
X175879095Y-120261095D01*
%TO.C,R1*%
X156297333Y-105481380D02*
X155964000Y-105005190D01*
X155725904Y-105481380D02*
X155725904Y-104481380D01*
X156106857Y-104481380D01*
X156202095Y-104529000D01*
X156249714Y-104576619D01*
X156297333Y-104671857D01*
X156297333Y-104814714D01*
X156249714Y-104909952D01*
X156202095Y-104957571D01*
X156106857Y-105005190D01*
X155725904Y-105005190D01*
X157249714Y-105481380D02*
X156678285Y-105481380D01*
X156964000Y-105481380D02*
X156964000Y-104481380D01*
X156868761Y-104624238D01*
X156773523Y-104719476D01*
X156678285Y-104767095D01*
%TO.C,R2*%
X159853333Y-105481380D02*
X159520000Y-105005190D01*
X159281904Y-105481380D02*
X159281904Y-104481380D01*
X159662857Y-104481380D01*
X159758095Y-104529000D01*
X159805714Y-104576619D01*
X159853333Y-104671857D01*
X159853333Y-104814714D01*
X159805714Y-104909952D01*
X159758095Y-104957571D01*
X159662857Y-105005190D01*
X159281904Y-105005190D01*
X160234285Y-104576619D02*
X160281904Y-104529000D01*
X160377142Y-104481380D01*
X160615238Y-104481380D01*
X160710476Y-104529000D01*
X160758095Y-104576619D01*
X160805714Y-104671857D01*
X160805714Y-104767095D01*
X160758095Y-104909952D01*
X160186666Y-105481380D01*
X160805714Y-105481380D01*
%TO.C,R3*%
X163409333Y-105481380D02*
X163076000Y-105005190D01*
X162837904Y-105481380D02*
X162837904Y-104481380D01*
X163218857Y-104481380D01*
X163314095Y-104529000D01*
X163361714Y-104576619D01*
X163409333Y-104671857D01*
X163409333Y-104814714D01*
X163361714Y-104909952D01*
X163314095Y-104957571D01*
X163218857Y-105005190D01*
X162837904Y-105005190D01*
X163742666Y-104481380D02*
X164361714Y-104481380D01*
X164028380Y-104862333D01*
X164171238Y-104862333D01*
X164266476Y-104909952D01*
X164314095Y-104957571D01*
X164361714Y-105052809D01*
X164361714Y-105290904D01*
X164314095Y-105386142D01*
X164266476Y-105433761D01*
X164171238Y-105481380D01*
X163885523Y-105481380D01*
X163790285Y-105433761D01*
X163742666Y-105386142D01*
%TO.C,R4*%
X166965333Y-105481380D02*
X166632000Y-105005190D01*
X166393904Y-105481380D02*
X166393904Y-104481380D01*
X166774857Y-104481380D01*
X166870095Y-104529000D01*
X166917714Y-104576619D01*
X166965333Y-104671857D01*
X166965333Y-104814714D01*
X166917714Y-104909952D01*
X166870095Y-104957571D01*
X166774857Y-105005190D01*
X166393904Y-105005190D01*
X167822476Y-104814714D02*
X167822476Y-105481380D01*
X167584380Y-104433761D02*
X167346285Y-105148047D01*
X167965333Y-105148047D01*
%TO.C,R5*%
X170521333Y-105481380D02*
X170188000Y-105005190D01*
X169949904Y-105481380D02*
X169949904Y-104481380D01*
X170330857Y-104481380D01*
X170426095Y-104529000D01*
X170473714Y-104576619D01*
X170521333Y-104671857D01*
X170521333Y-104814714D01*
X170473714Y-104909952D01*
X170426095Y-104957571D01*
X170330857Y-105005190D01*
X169949904Y-105005190D01*
X171426095Y-104481380D02*
X170949904Y-104481380D01*
X170902285Y-104957571D01*
X170949904Y-104909952D01*
X171045142Y-104862333D01*
X171283238Y-104862333D01*
X171378476Y-104909952D01*
X171426095Y-104957571D01*
X171473714Y-105052809D01*
X171473714Y-105290904D01*
X171426095Y-105386142D01*
X171378476Y-105433761D01*
X171283238Y-105481380D01*
X171045142Y-105481380D01*
X170949904Y-105433761D01*
X170902285Y-105386142D01*
%TO.C,R6*%
X174077333Y-105481380D02*
X173744000Y-105005190D01*
X173505904Y-105481380D02*
X173505904Y-104481380D01*
X173886857Y-104481380D01*
X173982095Y-104529000D01*
X174029714Y-104576619D01*
X174077333Y-104671857D01*
X174077333Y-104814714D01*
X174029714Y-104909952D01*
X173982095Y-104957571D01*
X173886857Y-105005190D01*
X173505904Y-105005190D01*
X174934476Y-104481380D02*
X174744000Y-104481380D01*
X174648761Y-104529000D01*
X174601142Y-104576619D01*
X174505904Y-104719476D01*
X174458285Y-104909952D01*
X174458285Y-105290904D01*
X174505904Y-105386142D01*
X174553523Y-105433761D01*
X174648761Y-105481380D01*
X174839238Y-105481380D01*
X174934476Y-105433761D01*
X174982095Y-105386142D01*
X175029714Y-105290904D01*
X175029714Y-105052809D01*
X174982095Y-104957571D01*
X174934476Y-104909952D01*
X174839238Y-104862333D01*
X174648761Y-104862333D01*
X174553523Y-104909952D01*
X174505904Y-104957571D01*
X174458285Y-105052809D01*
%TO.C,R7*%
X152741333Y-105481380D02*
X152408000Y-105005190D01*
X152169904Y-105481380D02*
X152169904Y-104481380D01*
X152550857Y-104481380D01*
X152646095Y-104529000D01*
X152693714Y-104576619D01*
X152741333Y-104671857D01*
X152741333Y-104814714D01*
X152693714Y-104909952D01*
X152646095Y-104957571D01*
X152550857Y-105005190D01*
X152169904Y-105005190D01*
X153074666Y-104481380D02*
X153741333Y-104481380D01*
X153312761Y-105481380D01*
%TO.C,S1*%
X164211095Y-100988761D02*
X164353952Y-101036380D01*
X164592047Y-101036380D01*
X164687285Y-100988761D01*
X164734904Y-100941142D01*
X164782523Y-100845904D01*
X164782523Y-100750666D01*
X164734904Y-100655428D01*
X164687285Y-100607809D01*
X164592047Y-100560190D01*
X164401571Y-100512571D01*
X164306333Y-100464952D01*
X164258714Y-100417333D01*
X164211095Y-100322095D01*
X164211095Y-100226857D01*
X164258714Y-100131619D01*
X164306333Y-100084000D01*
X164401571Y-100036380D01*
X164639666Y-100036380D01*
X164782523Y-100084000D01*
X165734904Y-101036380D02*
X165163476Y-101036380D01*
X165449190Y-101036380D02*
X165449190Y-100036380D01*
X165353952Y-100179238D01*
X165258714Y-100274476D01*
X165163476Y-100322095D01*
%TO.C,U1*%
X149860095Y-124928380D02*
X149860095Y-125737904D01*
X149907714Y-125833142D01*
X149955333Y-125880761D01*
X150050571Y-125928380D01*
X150241047Y-125928380D01*
X150336285Y-125880761D01*
X150383904Y-125833142D01*
X150431523Y-125737904D01*
X150431523Y-124928380D01*
X151431523Y-125928380D02*
X150860095Y-125928380D01*
X151145809Y-125928380D02*
X151145809Y-124928380D01*
X151050571Y-125071238D01*
X150955333Y-125166476D01*
X150860095Y-125214095D01*
%TD*%
D10*
X180187600Y-98933000D02*
X127660400Y-98933000D01*
X127660400Y-48895000D01*
X180187600Y-48895000D01*
X180187600Y-98933000D01*
D13*
G36*
X180187600Y-98933000D02*
G01*
X127660400Y-98933000D01*
X127660400Y-48895000D01*
X180187600Y-48895000D01*
X180187600Y-98933000D01*
G37*
M02*
