%TF.GenerationSoftware,KiCad,Pcbnew,(5.1.8)-1*%
%TF.CreationDate,2020-11-13T01:10:14+01:00*%
%TF.ProjectId,Emoji_Badge_StuCo,456d6f6a-695f-4426-9164-67655f537475,v01*%
%TF.SameCoordinates,Original*%
%TF.FileFunction,Copper,L2,Bot*%
%TF.FilePolarity,Positive*%
%FSLAX46Y46*%
G04 Gerber Fmt 4.6, Leading zero omitted, Abs format (unit mm)*
G04 Created by KiCad (PCBNEW (5.1.8)-1) date 2020-11-13 01:10:14*
%MOMM*%
%LPD*%
G01*
G04 APERTURE LIST*
%TA.AperFunction,NonConductor*%
%ADD10C,0.300000*%
%TD*%
%TA.AperFunction,ComponentPad*%
%ADD11C,1.800000*%
%TD*%
%TA.AperFunction,ComponentPad*%
%ADD12R,1.800000X1.800000*%
%TD*%
%TA.AperFunction,ComponentPad*%
%ADD13C,2.500000*%
%TD*%
%TA.AperFunction,ComponentPad*%
%ADD14R,2.170000X2.170000*%
%TD*%
%TA.AperFunction,ComponentPad*%
%ADD15C,1.200000*%
%TD*%
%TA.AperFunction,ComponentPad*%
%ADD16R,1.200000X1.200000*%
%TD*%
%TA.AperFunction,ComponentPad*%
%ADD17R,1.600000X1.600000*%
%TD*%
%TA.AperFunction,ComponentPad*%
%ADD18C,1.600000*%
%TD*%
%TA.AperFunction,ComponentPad*%
%ADD19R,1.625600X1.625600*%
%TD*%
%TA.AperFunction,ComponentPad*%
%ADD20C,1.625600*%
%TD*%
%TA.AperFunction,ComponentPad*%
%ADD21O,1.500000X1.050000*%
%TD*%
%TA.AperFunction,ComponentPad*%
%ADD22R,1.500000X1.050000*%
%TD*%
%TA.AperFunction,ComponentPad*%
%ADD23O,1.600000X1.600000*%
%TD*%
%TA.AperFunction,ComponentPad*%
%ADD24R,1.900000X1.900000*%
%TD*%
%TA.AperFunction,ComponentPad*%
%ADD25C,1.900000*%
%TD*%
%TA.AperFunction,Conductor*%
%ADD26C,0.254000*%
%TD*%
%TA.AperFunction,Conductor*%
%ADD27C,0.762000*%
%TD*%
%TA.AperFunction,Conductor*%
%ADD28C,0.100000*%
%TD*%
G04 APERTURE END LIST*
D10*
X132444857Y-124773571D02*
X132087714Y-125773571D01*
X131730571Y-124773571D01*
X130873428Y-124273571D02*
X130730571Y-124273571D01*
X130587714Y-124345000D01*
X130516285Y-124416428D01*
X130444857Y-124559285D01*
X130373428Y-124845000D01*
X130373428Y-125202142D01*
X130444857Y-125487857D01*
X130516285Y-125630714D01*
X130587714Y-125702142D01*
X130730571Y-125773571D01*
X130873428Y-125773571D01*
X131016285Y-125702142D01*
X131087714Y-125630714D01*
X131159142Y-125487857D01*
X131230571Y-125202142D01*
X131230571Y-124845000D01*
X131159142Y-124559285D01*
X131087714Y-124416428D01*
X131016285Y-124345000D01*
X130873428Y-124273571D01*
X129730571Y-125630714D02*
X129659142Y-125702142D01*
X129730571Y-125773571D01*
X129802000Y-125702142D01*
X129730571Y-125630714D01*
X129730571Y-125773571D01*
X128230571Y-125773571D02*
X129087714Y-125773571D01*
X128659142Y-125773571D02*
X128659142Y-124273571D01*
X128802000Y-124487857D01*
X128944857Y-124630714D01*
X129087714Y-124702142D01*
D11*
%TO.P,D2,2*%
%TO.N,Net-(D2-Pad2)*%
X147574000Y-69850000D03*
D12*
%TO.P,D2,1*%
%TO.N,Net-(D1-Pad1)*%
X147574000Y-72390000D03*
%TD*%
D11*
%TO.P,D1,2*%
%TO.N,Net-(D1-Pad2)*%
X160274000Y-69850000D03*
D12*
%TO.P,D1,1*%
%TO.N,Net-(D1-Pad1)*%
X160274000Y-72390000D03*
%TD*%
D13*
%TO.P,BAT1,Pos*%
%TO.N,Net-(BAT1-PadPos)*%
X139192000Y-102428000D03*
D14*
%TO.P,BAT1,Neg*%
%TO.N,GND*%
X139192000Y-122428000D03*
%TD*%
D15*
%TO.P,C1,2*%
%TO.N,GND*%
X165838000Y-124206000D03*
D16*
%TO.P,C1,1*%
%TO.N,Net-(C1-Pad1)*%
X164338000Y-124206000D03*
%TD*%
D17*
%TO.P,C2,1*%
%TO.N,Net-(C2-Pad1)*%
X169951400Y-123723400D03*
D18*
%TO.P,C2,2*%
%TO.N,GND*%
X171951400Y-123723400D03*
%TD*%
D19*
%TO.P,CR1,1*%
%TO.N,VCC*%
X178308000Y-104648000D03*
D20*
%TO.P,CR1,2*%
%TO.N,GND*%
X178308000Y-119176800D03*
%TD*%
D21*
%TO.P,Q1,2*%
%TO.N,Net-(Q1-Pad2)*%
X177546000Y-123698000D03*
%TO.P,Q1,3*%
%TO.N,Net-(D1-Pad1)*%
X177546000Y-124968000D03*
D22*
%TO.P,Q1,1*%
%TO.N,GND*%
X177546000Y-122428000D03*
%TD*%
D18*
%TO.P,R1,1*%
%TO.N,VCC*%
X156464000Y-106680000D03*
D23*
%TO.P,R1,2*%
%TO.N,DISCH*%
X156464000Y-114300000D03*
%TD*%
%TO.P,R2,2*%
%TO.N,Net-(C1-Pad1)*%
X160020000Y-114300000D03*
D18*
%TO.P,R2,1*%
%TO.N,DISCH*%
X160020000Y-106680000D03*
%TD*%
%TO.P,R3,1*%
%TO.N,Net-(C2-Pad1)*%
X163576000Y-106680000D03*
D23*
%TO.P,R3,2*%
%TO.N,Net-(R3-Pad2)*%
X163576000Y-114300000D03*
%TD*%
D18*
%TO.P,R4,1*%
%TO.N,GND*%
X167132000Y-106680000D03*
D23*
%TO.P,R4,2*%
%TO.N,Net-(C2-Pad1)*%
X167132000Y-114300000D03*
%TD*%
%TO.P,R5,2*%
%TO.N,Net-(Q1-Pad2)*%
X170688000Y-114300000D03*
D18*
%TO.P,R5,1*%
%TO.N,Net-(C2-Pad1)*%
X170688000Y-106680000D03*
%TD*%
%TO.P,R6,1*%
%TO.N,VCC*%
X174244000Y-106680000D03*
D23*
%TO.P,R6,2*%
%TO.N,Net-(D1-Pad2)*%
X174244000Y-114300000D03*
%TD*%
%TO.P,R7,2*%
%TO.N,Net-(D2-Pad2)*%
X152908000Y-106680000D03*
D18*
%TO.P,R7,1*%
%TO.N,VCC*%
X152908000Y-114300000D03*
%TD*%
D24*
%TO.P,S1,1*%
%TO.N,Net-(S1-Pad1)*%
X167386000Y-102870000D03*
D25*
%TO.P,S1,2*%
%TO.N,VCC*%
X164886000Y-102870000D03*
%TO.P,S1,3*%
%TO.N,Net-(BAT1-PadPos)*%
X162386000Y-102870000D03*
%TD*%
D17*
%TO.P,U1,1*%
%TO.N,GND*%
X160528000Y-124968000D03*
D18*
%TO.P,U1,2*%
%TO.N,Net-(C1-Pad1)*%
X160528000Y-122428000D03*
%TO.P,U1,3*%
%TO.N,Net-(R3-Pad2)*%
X160528000Y-119888000D03*
%TO.P,U1,4*%
%TO.N,VCC*%
X160528000Y-117348000D03*
%TO.P,U1,5*%
%TO.N,Net-(U1-Pad5)*%
X152908000Y-117348000D03*
%TO.P,U1,6*%
%TO.N,Net-(C1-Pad1)*%
X152908000Y-119888000D03*
%TO.P,U1,7*%
%TO.N,DISCH*%
X152908000Y-122428000D03*
%TO.P,U1,8*%
%TO.N,VCC*%
X152908000Y-124968000D03*
%TD*%
D26*
%TO.N,Net-(C1-Pad1)*%
X157988000Y-119888000D02*
X160528000Y-122428000D01*
X152908000Y-119888000D02*
X157988000Y-119888000D01*
X160528000Y-122428000D02*
X162052000Y-123952000D01*
X164084000Y-123952000D02*
X164338000Y-124206000D01*
X162052000Y-123952000D02*
X164084000Y-123952000D01*
X164338000Y-118618000D02*
X164338000Y-124206000D01*
X160020000Y-114300000D02*
X164338000Y-118618000D01*
%TO.N,Net-(C2-Pad1)*%
X169926000Y-123952000D02*
X169672000Y-123952000D01*
X163576000Y-110744000D02*
X167132000Y-114300000D01*
X163576000Y-106680000D02*
X163576000Y-110744000D01*
X165100000Y-120078500D02*
X168744900Y-123723400D01*
X168744900Y-123723400D02*
X169951400Y-123723400D01*
X165100000Y-116332000D02*
X165100000Y-120078500D01*
X167132000Y-114300000D02*
X165100000Y-116332000D01*
%TO.N,VCC*%
X150114000Y-117094000D02*
X152908000Y-114300000D01*
X150114000Y-122174000D02*
X150114000Y-117094000D01*
X152908000Y-124968000D02*
X150114000Y-122174000D01*
X155956000Y-117348000D02*
X152908000Y-114300000D01*
X160528000Y-117348000D02*
X155956000Y-117348000D01*
D27*
%TO.N,Net-(D1-Pad2)*%
X172466000Y-112522000D02*
X174244000Y-114300000D01*
X172466000Y-69850000D02*
X172466000Y-112522000D01*
X170180000Y-67564000D02*
X172466000Y-69850000D01*
X162560000Y-67564000D02*
X170180000Y-67564000D01*
X160274000Y-69850000D02*
X162560000Y-67564000D01*
%TO.N,Net-(D1-Pad1)*%
X147574000Y-72390000D02*
X160274000Y-72390000D01*
X170434000Y-71120000D02*
X168910000Y-69596000D01*
X170434000Y-103886000D02*
X170434000Y-71120000D01*
X163068000Y-69596000D02*
X160274000Y-72390000D01*
X168910000Y-105410000D02*
X170434000Y-103886000D01*
X168910000Y-69596000D02*
X163068000Y-69596000D01*
X168910000Y-105410000D02*
X168910000Y-117221000D01*
X176657000Y-124968000D02*
X177546000Y-124968000D01*
X168910000Y-117221000D02*
X176657000Y-124968000D01*
%TO.N,Net-(D2-Pad2)*%
X145288000Y-67564000D02*
X147574000Y-69850000D01*
X142240000Y-67564000D02*
X145288000Y-67564000D01*
X139954000Y-69850000D02*
X142240000Y-67564000D01*
X139954000Y-72390000D02*
X139954000Y-69850000D01*
X152908000Y-85344000D02*
X139954000Y-72390000D01*
X152908000Y-106680000D02*
X152908000Y-85344000D01*
D26*
%TO.N,Net-(Q1-Pad2)*%
X177800000Y-123698000D02*
X177206398Y-123698000D01*
X176905998Y-123698000D02*
X177596800Y-123698000D01*
X176855198Y-123698000D02*
X177546000Y-123698000D01*
X170688000Y-117530802D02*
X176855198Y-123698000D01*
X170688000Y-114300000D02*
X170688000Y-117530802D01*
%TD*%
%TO.N,GND*%
X180187601Y-126339600D02*
X161605672Y-126339600D01*
X161682494Y-126298537D01*
X161779185Y-126219185D01*
X161858537Y-126122494D01*
X161917502Y-126012180D01*
X161953812Y-125892482D01*
X161966072Y-125768000D01*
X161963000Y-125253750D01*
X161804250Y-125095000D01*
X160655000Y-125095000D01*
X160655000Y-125115000D01*
X160401000Y-125115000D01*
X160401000Y-125095000D01*
X159251750Y-125095000D01*
X159093000Y-125253750D01*
X159089928Y-125768000D01*
X159102188Y-125892482D01*
X159138498Y-126012180D01*
X159197463Y-126122494D01*
X159276815Y-126219185D01*
X159373506Y-126298537D01*
X159450328Y-126339600D01*
X153346499Y-126339600D01*
X153587727Y-126239680D01*
X153822759Y-126082637D01*
X154022637Y-125882759D01*
X154179680Y-125647727D01*
X154287853Y-125386574D01*
X154343000Y-125109335D01*
X154343000Y-124826665D01*
X154287853Y-124549426D01*
X154179680Y-124288273D01*
X154022637Y-124053241D01*
X153822759Y-123853363D01*
X153590241Y-123698000D01*
X153822759Y-123542637D01*
X154022637Y-123342759D01*
X154179680Y-123107727D01*
X154287853Y-122846574D01*
X154343000Y-122569335D01*
X154343000Y-122286665D01*
X154287853Y-122009426D01*
X154179680Y-121748273D01*
X154022637Y-121513241D01*
X153822759Y-121313363D01*
X153590241Y-121158000D01*
X153822759Y-121002637D01*
X154022637Y-120802759D01*
X154124707Y-120650000D01*
X157672370Y-120650000D01*
X159128843Y-122106473D01*
X159093000Y-122286665D01*
X159093000Y-122569335D01*
X159148147Y-122846574D01*
X159256320Y-123107727D01*
X159413363Y-123342759D01*
X159611961Y-123541357D01*
X159603518Y-123542188D01*
X159483820Y-123578498D01*
X159373506Y-123637463D01*
X159276815Y-123716815D01*
X159197463Y-123813506D01*
X159138498Y-123923820D01*
X159102188Y-124043518D01*
X159089928Y-124168000D01*
X159093000Y-124682250D01*
X159251750Y-124841000D01*
X160401000Y-124841000D01*
X160401000Y-124821000D01*
X160655000Y-124821000D01*
X160655000Y-124841000D01*
X161804250Y-124841000D01*
X161938721Y-124706529D01*
X162014574Y-124714000D01*
X162014576Y-124714000D01*
X162051999Y-124717686D01*
X162089422Y-124714000D01*
X163099928Y-124714000D01*
X163099928Y-124806000D01*
X163112188Y-124930482D01*
X163148498Y-125050180D01*
X163207463Y-125160494D01*
X163286815Y-125257185D01*
X163383506Y-125336537D01*
X163493820Y-125395502D01*
X163613518Y-125431812D01*
X163738000Y-125444072D01*
X164938000Y-125444072D01*
X165062482Y-125431812D01*
X165182180Y-125395502D01*
X165292494Y-125336537D01*
X165309681Y-125322432D01*
X165436516Y-125380237D01*
X165673313Y-125436000D01*
X165916438Y-125444495D01*
X166156549Y-125405395D01*
X166384418Y-125320202D01*
X166460852Y-125279348D01*
X166508159Y-125055764D01*
X165838000Y-124385605D01*
X165823858Y-124399748D01*
X165644253Y-124220143D01*
X165658395Y-124206000D01*
X166017605Y-124206000D01*
X166687764Y-124876159D01*
X166911348Y-124828852D01*
X167012237Y-124607484D01*
X167068000Y-124370687D01*
X167076495Y-124127562D01*
X167037395Y-123887451D01*
X166952202Y-123659582D01*
X166911348Y-123583148D01*
X166687764Y-123535841D01*
X166017605Y-124206000D01*
X165658395Y-124206000D01*
X165644253Y-124191858D01*
X165823858Y-124012253D01*
X165838000Y-124026395D01*
X166508159Y-123356236D01*
X166460852Y-123132652D01*
X166239484Y-123031763D01*
X166002687Y-122976000D01*
X165759562Y-122967505D01*
X165519451Y-123006605D01*
X165305883Y-123086451D01*
X165292494Y-123075463D01*
X165182180Y-123016498D01*
X165100000Y-122991569D01*
X165100000Y-121156130D01*
X168179621Y-124235752D01*
X168203478Y-124264822D01*
X168319508Y-124360045D01*
X168451885Y-124430802D01*
X168513328Y-124449441D01*
X168513328Y-124523400D01*
X168525588Y-124647882D01*
X168561898Y-124767580D01*
X168620863Y-124877894D01*
X168700215Y-124974585D01*
X168796906Y-125053937D01*
X168907220Y-125112902D01*
X169026918Y-125149212D01*
X169151400Y-125161472D01*
X170751400Y-125161472D01*
X170875882Y-125149212D01*
X170995580Y-125112902D01*
X171105894Y-125053937D01*
X171202585Y-124974585D01*
X171213207Y-124961642D01*
X171465396Y-125080971D01*
X171739584Y-125149700D01*
X172021912Y-125163617D01*
X172301530Y-125122187D01*
X172567692Y-125027003D01*
X172692914Y-124960071D01*
X172764497Y-124716102D01*
X171951400Y-123903005D01*
X171937258Y-123917148D01*
X171757653Y-123737543D01*
X171771795Y-123723400D01*
X171757653Y-123709258D01*
X171937258Y-123529653D01*
X171951400Y-123543795D01*
X171965543Y-123529653D01*
X172145148Y-123709258D01*
X172131005Y-123723400D01*
X172944102Y-124536497D01*
X173188071Y-124464914D01*
X173308971Y-124209404D01*
X173377700Y-123935216D01*
X173391617Y-123652888D01*
X173350187Y-123373270D01*
X173255003Y-123107108D01*
X173188071Y-122981886D01*
X172944104Y-122910303D01*
X173053283Y-122801124D01*
X175903292Y-125651133D01*
X175935104Y-125689896D01*
X176089810Y-125816860D01*
X176266313Y-125911202D01*
X176399732Y-125951674D01*
X176457828Y-125969298D01*
X176477177Y-125971204D01*
X176607098Y-125984000D01*
X176607105Y-125984000D01*
X176656999Y-125988914D01*
X176706893Y-125984000D01*
X176761032Y-125984000D01*
X176874940Y-126044885D01*
X177093600Y-126111215D01*
X177264021Y-126128000D01*
X177827979Y-126128000D01*
X177998400Y-126111215D01*
X178217060Y-126044885D01*
X178418579Y-125937171D01*
X178595212Y-125792212D01*
X178740171Y-125615579D01*
X178847885Y-125414060D01*
X178914215Y-125195400D01*
X178936612Y-124968000D01*
X178914215Y-124740600D01*
X178847885Y-124521940D01*
X178746895Y-124333000D01*
X178847885Y-124144060D01*
X178914215Y-123925400D01*
X178936612Y-123698000D01*
X178914215Y-123470600D01*
X178850907Y-123261902D01*
X178885502Y-123197180D01*
X178921812Y-123077482D01*
X178934072Y-122953000D01*
X178931000Y-122713750D01*
X178772250Y-122555000D01*
X177999109Y-122555000D01*
X177998400Y-122554785D01*
X177827979Y-122538000D01*
X177399000Y-122538000D01*
X177399000Y-122301000D01*
X177419000Y-122301000D01*
X177419000Y-121426750D01*
X177673000Y-121426750D01*
X177673000Y-122301000D01*
X178772250Y-122301000D01*
X178931000Y-122142250D01*
X178934072Y-121903000D01*
X178921812Y-121778518D01*
X178885502Y-121658820D01*
X178826537Y-121548506D01*
X178747185Y-121451815D01*
X178650494Y-121372463D01*
X178540180Y-121313498D01*
X178420482Y-121277188D01*
X178296000Y-121264928D01*
X177831750Y-121268000D01*
X177673000Y-121426750D01*
X177419000Y-121426750D01*
X177260250Y-121268000D01*
X176796000Y-121264928D01*
X176671518Y-121277188D01*
X176551820Y-121313498D01*
X176441506Y-121372463D01*
X176344815Y-121451815D01*
X176265463Y-121548506D01*
X176206498Y-121658820D01*
X176170188Y-121778518D01*
X176157928Y-121903000D01*
X176158189Y-121923361D01*
X174413470Y-120178642D01*
X177485764Y-120178642D01*
X177558897Y-120423917D01*
X177816591Y-120546097D01*
X178093170Y-120615656D01*
X178378005Y-120629920D01*
X178660150Y-120588341D01*
X178928761Y-120492519D01*
X179057103Y-120423917D01*
X179130236Y-120178642D01*
X178308000Y-119356405D01*
X177485764Y-120178642D01*
X174413470Y-120178642D01*
X173481633Y-119246805D01*
X176854880Y-119246805D01*
X176896459Y-119528950D01*
X176992281Y-119797561D01*
X177060883Y-119925903D01*
X177306158Y-119999036D01*
X178128395Y-119176800D01*
X178487605Y-119176800D01*
X179309842Y-119999036D01*
X179555117Y-119925903D01*
X179677297Y-119668209D01*
X179746856Y-119391630D01*
X179761120Y-119106795D01*
X179719541Y-118824650D01*
X179623719Y-118556039D01*
X179555117Y-118427697D01*
X179309842Y-118354564D01*
X178487605Y-119176800D01*
X178128395Y-119176800D01*
X177306158Y-118354564D01*
X177060883Y-118427697D01*
X176938703Y-118685391D01*
X176869144Y-118961970D01*
X176854880Y-119246805D01*
X173481633Y-119246805D01*
X172409786Y-118174958D01*
X177485764Y-118174958D01*
X178308000Y-118997195D01*
X179130236Y-118174958D01*
X179057103Y-117929683D01*
X178799409Y-117807503D01*
X178522830Y-117737944D01*
X178237995Y-117723680D01*
X177955850Y-117765259D01*
X177687239Y-117861081D01*
X177558897Y-117929683D01*
X177485764Y-118174958D01*
X172409786Y-118174958D01*
X171450000Y-117215172D01*
X171450000Y-115516707D01*
X171602759Y-115414637D01*
X171802637Y-115214759D01*
X171959680Y-114979727D01*
X172067853Y-114718574D01*
X172123000Y-114441335D01*
X172123000Y-114158665D01*
X172067853Y-113881426D01*
X171959680Y-113620273D01*
X171802637Y-113385241D01*
X171602759Y-113185363D01*
X171367727Y-113028320D01*
X171106574Y-112920147D01*
X170829335Y-112865000D01*
X170546665Y-112865000D01*
X170269426Y-112920147D01*
X170008273Y-113028320D01*
X169926000Y-113083293D01*
X169926000Y-107896707D01*
X170008273Y-107951680D01*
X170269426Y-108059853D01*
X170546665Y-108115000D01*
X170829335Y-108115000D01*
X171106574Y-108059853D01*
X171367727Y-107951680D01*
X171450001Y-107896706D01*
X171450001Y-112472088D01*
X171445085Y-112522000D01*
X171464702Y-112721170D01*
X171508333Y-112865000D01*
X171522799Y-112912687D01*
X171617141Y-113089190D01*
X171744105Y-113243896D01*
X171782868Y-113275708D01*
X172809000Y-114301841D01*
X172809000Y-114441335D01*
X172864147Y-114718574D01*
X172972320Y-114979727D01*
X173129363Y-115214759D01*
X173329241Y-115414637D01*
X173564273Y-115571680D01*
X173825426Y-115679853D01*
X174102665Y-115735000D01*
X174385335Y-115735000D01*
X174662574Y-115679853D01*
X174923727Y-115571680D01*
X175158759Y-115414637D01*
X175358637Y-115214759D01*
X175515680Y-114979727D01*
X175623853Y-114718574D01*
X175679000Y-114441335D01*
X175679000Y-114158665D01*
X175623853Y-113881426D01*
X175515680Y-113620273D01*
X175358637Y-113385241D01*
X175158759Y-113185363D01*
X174923727Y-113028320D01*
X174662574Y-112920147D01*
X174385335Y-112865000D01*
X174245841Y-112865000D01*
X173482000Y-112101160D01*
X173482000Y-107896707D01*
X173564273Y-107951680D01*
X173825426Y-108059853D01*
X174102665Y-108115000D01*
X174385335Y-108115000D01*
X174662574Y-108059853D01*
X174923727Y-107951680D01*
X175158759Y-107794637D01*
X175358637Y-107594759D01*
X175515680Y-107359727D01*
X175623853Y-107098574D01*
X175679000Y-106821335D01*
X175679000Y-106538665D01*
X175623853Y-106261426D01*
X175515680Y-106000273D01*
X175358637Y-105765241D01*
X175158759Y-105565363D01*
X174923727Y-105408320D01*
X174662574Y-105300147D01*
X174385335Y-105245000D01*
X174102665Y-105245000D01*
X173825426Y-105300147D01*
X173564273Y-105408320D01*
X173482000Y-105463293D01*
X173482000Y-103835200D01*
X176857128Y-103835200D01*
X176857128Y-105460800D01*
X176869388Y-105585282D01*
X176905698Y-105704980D01*
X176964663Y-105815294D01*
X177044015Y-105911985D01*
X177140706Y-105991337D01*
X177251020Y-106050302D01*
X177370718Y-106086612D01*
X177495200Y-106098872D01*
X179120800Y-106098872D01*
X179245282Y-106086612D01*
X179364980Y-106050302D01*
X179475294Y-105991337D01*
X179571985Y-105911985D01*
X179651337Y-105815294D01*
X179710302Y-105704980D01*
X179746612Y-105585282D01*
X179758872Y-105460800D01*
X179758872Y-103835200D01*
X179746612Y-103710718D01*
X179710302Y-103591020D01*
X179651337Y-103480706D01*
X179571985Y-103384015D01*
X179475294Y-103304663D01*
X179364980Y-103245698D01*
X179245282Y-103209388D01*
X179120800Y-103197128D01*
X177495200Y-103197128D01*
X177370718Y-103209388D01*
X177251020Y-103245698D01*
X177140706Y-103304663D01*
X177044015Y-103384015D01*
X176964663Y-103480706D01*
X176905698Y-103591020D01*
X176869388Y-103710718D01*
X176857128Y-103835200D01*
X173482000Y-103835200D01*
X173482000Y-69899893D01*
X173486914Y-69849999D01*
X173482000Y-69800105D01*
X173482000Y-69800098D01*
X173467298Y-69650829D01*
X173409202Y-69459313D01*
X173314860Y-69282810D01*
X173187896Y-69128104D01*
X173149133Y-69096292D01*
X170933712Y-66880872D01*
X170901896Y-66842104D01*
X170747190Y-66715140D01*
X170570687Y-66620798D01*
X170379171Y-66562702D01*
X170229902Y-66548000D01*
X170180000Y-66543085D01*
X170130098Y-66548000D01*
X162609893Y-66548000D01*
X162559999Y-66543086D01*
X162510105Y-66548000D01*
X162510098Y-66548000D01*
X162360829Y-66562702D01*
X162169313Y-66620798D01*
X161992810Y-66715140D01*
X161838104Y-66842104D01*
X161806292Y-66880867D01*
X160372160Y-68315000D01*
X160122816Y-68315000D01*
X159826257Y-68373989D01*
X159546905Y-68489701D01*
X159295495Y-68657688D01*
X159081688Y-68871495D01*
X158913701Y-69122905D01*
X158797989Y-69402257D01*
X158739000Y-69698816D01*
X158739000Y-70001184D01*
X158797989Y-70297743D01*
X158913701Y-70577095D01*
X159081688Y-70828505D01*
X159148127Y-70894944D01*
X159129820Y-70900498D01*
X159019506Y-70959463D01*
X158922815Y-71038815D01*
X158843463Y-71135506D01*
X158784498Y-71245820D01*
X158748188Y-71365518D01*
X158747353Y-71374000D01*
X149100647Y-71374000D01*
X149099812Y-71365518D01*
X149063502Y-71245820D01*
X149004537Y-71135506D01*
X148925185Y-71038815D01*
X148828494Y-70959463D01*
X148718180Y-70900498D01*
X148699873Y-70894944D01*
X148766312Y-70828505D01*
X148934299Y-70577095D01*
X149050011Y-70297743D01*
X149109000Y-70001184D01*
X149109000Y-69698816D01*
X149050011Y-69402257D01*
X148934299Y-69122905D01*
X148766312Y-68871495D01*
X148552505Y-68657688D01*
X148301095Y-68489701D01*
X148021743Y-68373989D01*
X147725184Y-68315000D01*
X147475841Y-68315000D01*
X146041712Y-66880872D01*
X146009896Y-66842104D01*
X145855190Y-66715140D01*
X145678687Y-66620798D01*
X145487171Y-66562702D01*
X145337902Y-66548000D01*
X145288000Y-66543085D01*
X145238098Y-66548000D01*
X142289893Y-66548000D01*
X142239999Y-66543086D01*
X142190105Y-66548000D01*
X142190098Y-66548000D01*
X142040829Y-66562702D01*
X141849313Y-66620798D01*
X141672810Y-66715140D01*
X141518104Y-66842104D01*
X141486292Y-66880867D01*
X139270868Y-69096292D01*
X139232105Y-69128104D01*
X139105141Y-69282810D01*
X139044197Y-69396829D01*
X139010799Y-69459313D01*
X138952702Y-69650830D01*
X138933085Y-69850000D01*
X138938001Y-69899911D01*
X138938000Y-72340098D01*
X138933085Y-72390000D01*
X138938000Y-72439901D01*
X138952702Y-72589170D01*
X139010798Y-72780686D01*
X139105140Y-72957190D01*
X139232104Y-73111896D01*
X139270872Y-73143712D01*
X151892001Y-85764842D01*
X151892000Y-105666604D01*
X151793363Y-105765241D01*
X151636320Y-106000273D01*
X151528147Y-106261426D01*
X151473000Y-106538665D01*
X151473000Y-106821335D01*
X151528147Y-107098574D01*
X151636320Y-107359727D01*
X151793363Y-107594759D01*
X151993241Y-107794637D01*
X152228273Y-107951680D01*
X152489426Y-108059853D01*
X152766665Y-108115000D01*
X153049335Y-108115000D01*
X153326574Y-108059853D01*
X153587727Y-107951680D01*
X153822759Y-107794637D01*
X154022637Y-107594759D01*
X154179680Y-107359727D01*
X154287853Y-107098574D01*
X154343000Y-106821335D01*
X154343000Y-106538665D01*
X155029000Y-106538665D01*
X155029000Y-106821335D01*
X155084147Y-107098574D01*
X155192320Y-107359727D01*
X155349363Y-107594759D01*
X155549241Y-107794637D01*
X155784273Y-107951680D01*
X156045426Y-108059853D01*
X156322665Y-108115000D01*
X156605335Y-108115000D01*
X156882574Y-108059853D01*
X157143727Y-107951680D01*
X157378759Y-107794637D01*
X157578637Y-107594759D01*
X157735680Y-107359727D01*
X157843853Y-107098574D01*
X157899000Y-106821335D01*
X157899000Y-106538665D01*
X158585000Y-106538665D01*
X158585000Y-106821335D01*
X158640147Y-107098574D01*
X158748320Y-107359727D01*
X158905363Y-107594759D01*
X159105241Y-107794637D01*
X159340273Y-107951680D01*
X159601426Y-108059853D01*
X159878665Y-108115000D01*
X160161335Y-108115000D01*
X160438574Y-108059853D01*
X160699727Y-107951680D01*
X160934759Y-107794637D01*
X161134637Y-107594759D01*
X161291680Y-107359727D01*
X161399853Y-107098574D01*
X161455000Y-106821335D01*
X161455000Y-106538665D01*
X161399853Y-106261426D01*
X161291680Y-106000273D01*
X161134637Y-105765241D01*
X160934759Y-105565363D01*
X160699727Y-105408320D01*
X160438574Y-105300147D01*
X160161335Y-105245000D01*
X159878665Y-105245000D01*
X159601426Y-105300147D01*
X159340273Y-105408320D01*
X159105241Y-105565363D01*
X158905363Y-105765241D01*
X158748320Y-106000273D01*
X158640147Y-106261426D01*
X158585000Y-106538665D01*
X157899000Y-106538665D01*
X157843853Y-106261426D01*
X157735680Y-106000273D01*
X157578637Y-105765241D01*
X157378759Y-105565363D01*
X157143727Y-105408320D01*
X156882574Y-105300147D01*
X156605335Y-105245000D01*
X156322665Y-105245000D01*
X156045426Y-105300147D01*
X155784273Y-105408320D01*
X155549241Y-105565363D01*
X155349363Y-105765241D01*
X155192320Y-106000273D01*
X155084147Y-106261426D01*
X155029000Y-106538665D01*
X154343000Y-106538665D01*
X154287853Y-106261426D01*
X154179680Y-106000273D01*
X154022637Y-105765241D01*
X153924000Y-105666604D01*
X153924000Y-85393893D01*
X153928914Y-85343999D01*
X153924000Y-85294105D01*
X153924000Y-85294098D01*
X153909298Y-85144829D01*
X153851202Y-84953313D01*
X153756860Y-84776810D01*
X153629896Y-84622104D01*
X153591133Y-84590292D01*
X140970000Y-71969160D01*
X140970000Y-70270840D01*
X142660841Y-68580000D01*
X144867160Y-68580000D01*
X146039000Y-69751841D01*
X146039000Y-70001184D01*
X146097989Y-70297743D01*
X146213701Y-70577095D01*
X146381688Y-70828505D01*
X146448127Y-70894944D01*
X146429820Y-70900498D01*
X146319506Y-70959463D01*
X146222815Y-71038815D01*
X146143463Y-71135506D01*
X146084498Y-71245820D01*
X146048188Y-71365518D01*
X146035928Y-71490000D01*
X146035928Y-73290000D01*
X146048188Y-73414482D01*
X146084498Y-73534180D01*
X146143463Y-73644494D01*
X146222815Y-73741185D01*
X146319506Y-73820537D01*
X146429820Y-73879502D01*
X146549518Y-73915812D01*
X146674000Y-73928072D01*
X148474000Y-73928072D01*
X148598482Y-73915812D01*
X148718180Y-73879502D01*
X148828494Y-73820537D01*
X148925185Y-73741185D01*
X149004537Y-73644494D01*
X149063502Y-73534180D01*
X149099812Y-73414482D01*
X149100647Y-73406000D01*
X158747353Y-73406000D01*
X158748188Y-73414482D01*
X158784498Y-73534180D01*
X158843463Y-73644494D01*
X158922815Y-73741185D01*
X159019506Y-73820537D01*
X159129820Y-73879502D01*
X159249518Y-73915812D01*
X159374000Y-73928072D01*
X161174000Y-73928072D01*
X161298482Y-73915812D01*
X161418180Y-73879502D01*
X161528494Y-73820537D01*
X161625185Y-73741185D01*
X161704537Y-73644494D01*
X161763502Y-73534180D01*
X161799812Y-73414482D01*
X161812072Y-73290000D01*
X161812072Y-72288768D01*
X163488841Y-70612000D01*
X168489160Y-70612000D01*
X169418001Y-71540842D01*
X169418000Y-103465159D01*
X168964339Y-103918820D01*
X168974072Y-103820000D01*
X168974072Y-101920000D01*
X168961812Y-101795518D01*
X168925502Y-101675820D01*
X168866537Y-101565506D01*
X168787185Y-101468815D01*
X168690494Y-101389463D01*
X168580180Y-101330498D01*
X168460482Y-101294188D01*
X168336000Y-101281928D01*
X166436000Y-101281928D01*
X166311518Y-101294188D01*
X166191820Y-101330498D01*
X166081506Y-101389463D01*
X165984815Y-101468815D01*
X165905463Y-101565506D01*
X165874186Y-101624021D01*
X165636779Y-101465391D01*
X165348327Y-101345911D01*
X165042109Y-101285000D01*
X164729891Y-101285000D01*
X164423673Y-101345911D01*
X164135221Y-101465391D01*
X163875621Y-101638850D01*
X163654850Y-101859621D01*
X163636000Y-101887832D01*
X163617150Y-101859621D01*
X163396379Y-101638850D01*
X163136779Y-101465391D01*
X162848327Y-101345911D01*
X162542109Y-101285000D01*
X162229891Y-101285000D01*
X161923673Y-101345911D01*
X161635221Y-101465391D01*
X161375621Y-101638850D01*
X161154850Y-101859621D01*
X160981391Y-102119221D01*
X160861911Y-102407673D01*
X160801000Y-102713891D01*
X160801000Y-103026109D01*
X160861911Y-103332327D01*
X160981391Y-103620779D01*
X161154850Y-103880379D01*
X161375621Y-104101150D01*
X161635221Y-104274609D01*
X161923673Y-104394089D01*
X162229891Y-104455000D01*
X162542109Y-104455000D01*
X162848327Y-104394089D01*
X163136779Y-104274609D01*
X163396379Y-104101150D01*
X163617150Y-103880379D01*
X163636000Y-103852168D01*
X163654850Y-103880379D01*
X163875621Y-104101150D01*
X164135221Y-104274609D01*
X164423673Y-104394089D01*
X164729891Y-104455000D01*
X165042109Y-104455000D01*
X165348327Y-104394089D01*
X165636779Y-104274609D01*
X165874186Y-104115979D01*
X165905463Y-104174494D01*
X165984815Y-104271185D01*
X166081506Y-104350537D01*
X166191820Y-104409502D01*
X166311518Y-104445812D01*
X166436000Y-104458072D01*
X168336000Y-104458072D01*
X168434820Y-104448339D01*
X168226872Y-104656288D01*
X168188104Y-104688104D01*
X168061140Y-104842810D01*
X167966798Y-105019314D01*
X167908702Y-105210829D01*
X167908702Y-105210830D01*
X167889085Y-105410000D01*
X167894000Y-105459902D01*
X167894000Y-105513149D01*
X167873514Y-105443329D01*
X167618004Y-105322429D01*
X167343816Y-105253700D01*
X167061488Y-105239783D01*
X166781870Y-105281213D01*
X166515708Y-105376397D01*
X166390486Y-105443329D01*
X166318903Y-105687298D01*
X167132000Y-106500395D01*
X167146143Y-106486253D01*
X167325748Y-106665858D01*
X167311605Y-106680000D01*
X167325748Y-106694143D01*
X167146143Y-106873748D01*
X167132000Y-106859605D01*
X166318903Y-107672702D01*
X166390486Y-107916671D01*
X166645996Y-108037571D01*
X166920184Y-108106300D01*
X167202512Y-108120217D01*
X167482130Y-108078787D01*
X167748292Y-107983603D01*
X167873514Y-107916671D01*
X167894000Y-107846850D01*
X167894001Y-113083293D01*
X167811727Y-113028320D01*
X167550574Y-112920147D01*
X167273335Y-112865000D01*
X166990665Y-112865000D01*
X166810474Y-112900843D01*
X164338000Y-110428370D01*
X164338000Y-107896707D01*
X164490759Y-107794637D01*
X164690637Y-107594759D01*
X164847680Y-107359727D01*
X164955853Y-107098574D01*
X165011000Y-106821335D01*
X165011000Y-106750512D01*
X165691783Y-106750512D01*
X165733213Y-107030130D01*
X165828397Y-107296292D01*
X165895329Y-107421514D01*
X166139298Y-107493097D01*
X166952395Y-106680000D01*
X166139298Y-105866903D01*
X165895329Y-105938486D01*
X165774429Y-106193996D01*
X165705700Y-106468184D01*
X165691783Y-106750512D01*
X165011000Y-106750512D01*
X165011000Y-106538665D01*
X164955853Y-106261426D01*
X164847680Y-106000273D01*
X164690637Y-105765241D01*
X164490759Y-105565363D01*
X164255727Y-105408320D01*
X163994574Y-105300147D01*
X163717335Y-105245000D01*
X163434665Y-105245000D01*
X163157426Y-105300147D01*
X162896273Y-105408320D01*
X162661241Y-105565363D01*
X162461363Y-105765241D01*
X162304320Y-106000273D01*
X162196147Y-106261426D01*
X162141000Y-106538665D01*
X162141000Y-106821335D01*
X162196147Y-107098574D01*
X162304320Y-107359727D01*
X162461363Y-107594759D01*
X162661241Y-107794637D01*
X162814000Y-107896707D01*
X162814001Y-110706567D01*
X162810314Y-110744000D01*
X162825027Y-110893378D01*
X162868599Y-111037015D01*
X162939355Y-111169392D01*
X163010721Y-111256351D01*
X163034579Y-111285422D01*
X163063649Y-111309279D01*
X165732843Y-113978474D01*
X165697000Y-114158665D01*
X165697000Y-114441335D01*
X165732843Y-114621527D01*
X164587654Y-115766716D01*
X164558578Y-115790578D01*
X164502983Y-115858322D01*
X164463355Y-115906608D01*
X164430462Y-115968147D01*
X164392598Y-116038986D01*
X164349026Y-116182623D01*
X164338000Y-116294574D01*
X164334314Y-116332000D01*
X164338000Y-116369423D01*
X164338000Y-117540369D01*
X161419157Y-114621527D01*
X161455000Y-114441335D01*
X161455000Y-114158665D01*
X162141000Y-114158665D01*
X162141000Y-114441335D01*
X162196147Y-114718574D01*
X162304320Y-114979727D01*
X162461363Y-115214759D01*
X162661241Y-115414637D01*
X162896273Y-115571680D01*
X163157426Y-115679853D01*
X163434665Y-115735000D01*
X163717335Y-115735000D01*
X163994574Y-115679853D01*
X164255727Y-115571680D01*
X164490759Y-115414637D01*
X164690637Y-115214759D01*
X164847680Y-114979727D01*
X164955853Y-114718574D01*
X165011000Y-114441335D01*
X165011000Y-114158665D01*
X164955853Y-113881426D01*
X164847680Y-113620273D01*
X164690637Y-113385241D01*
X164490759Y-113185363D01*
X164255727Y-113028320D01*
X163994574Y-112920147D01*
X163717335Y-112865000D01*
X163434665Y-112865000D01*
X163157426Y-112920147D01*
X162896273Y-113028320D01*
X162661241Y-113185363D01*
X162461363Y-113385241D01*
X162304320Y-113620273D01*
X162196147Y-113881426D01*
X162141000Y-114158665D01*
X161455000Y-114158665D01*
X161399853Y-113881426D01*
X161291680Y-113620273D01*
X161134637Y-113385241D01*
X160934759Y-113185363D01*
X160699727Y-113028320D01*
X160438574Y-112920147D01*
X160161335Y-112865000D01*
X159878665Y-112865000D01*
X159601426Y-112920147D01*
X159340273Y-113028320D01*
X159105241Y-113185363D01*
X158905363Y-113385241D01*
X158748320Y-113620273D01*
X158640147Y-113881426D01*
X158585000Y-114158665D01*
X158585000Y-114441335D01*
X158640147Y-114718574D01*
X158748320Y-114979727D01*
X158905363Y-115214759D01*
X159105241Y-115414637D01*
X159340273Y-115571680D01*
X159601426Y-115679853D01*
X159878665Y-115735000D01*
X160161335Y-115735000D01*
X160341527Y-115699157D01*
X160555370Y-115913000D01*
X160386665Y-115913000D01*
X160109426Y-115968147D01*
X159848273Y-116076320D01*
X159613241Y-116233363D01*
X159413363Y-116433241D01*
X159311293Y-116586000D01*
X156271631Y-116586000D01*
X154307157Y-114621527D01*
X154343000Y-114441335D01*
X154343000Y-114158665D01*
X155029000Y-114158665D01*
X155029000Y-114441335D01*
X155084147Y-114718574D01*
X155192320Y-114979727D01*
X155349363Y-115214759D01*
X155549241Y-115414637D01*
X155784273Y-115571680D01*
X156045426Y-115679853D01*
X156322665Y-115735000D01*
X156605335Y-115735000D01*
X156882574Y-115679853D01*
X157143727Y-115571680D01*
X157378759Y-115414637D01*
X157578637Y-115214759D01*
X157735680Y-114979727D01*
X157843853Y-114718574D01*
X157899000Y-114441335D01*
X157899000Y-114158665D01*
X157843853Y-113881426D01*
X157735680Y-113620273D01*
X157578637Y-113385241D01*
X157378759Y-113185363D01*
X157143727Y-113028320D01*
X156882574Y-112920147D01*
X156605335Y-112865000D01*
X156322665Y-112865000D01*
X156045426Y-112920147D01*
X155784273Y-113028320D01*
X155549241Y-113185363D01*
X155349363Y-113385241D01*
X155192320Y-113620273D01*
X155084147Y-113881426D01*
X155029000Y-114158665D01*
X154343000Y-114158665D01*
X154287853Y-113881426D01*
X154179680Y-113620273D01*
X154022637Y-113385241D01*
X153822759Y-113185363D01*
X153587727Y-113028320D01*
X153326574Y-112920147D01*
X153049335Y-112865000D01*
X152766665Y-112865000D01*
X152489426Y-112920147D01*
X152228273Y-113028320D01*
X151993241Y-113185363D01*
X151793363Y-113385241D01*
X151636320Y-113620273D01*
X151528147Y-113881426D01*
X151473000Y-114158665D01*
X151473000Y-114441335D01*
X151508843Y-114621527D01*
X149601649Y-116528721D01*
X149572579Y-116552578D01*
X149548722Y-116581648D01*
X149548721Y-116581649D01*
X149477355Y-116668608D01*
X149406599Y-116800985D01*
X149363027Y-116944622D01*
X149348314Y-117094000D01*
X149352001Y-117131433D01*
X149352000Y-122136577D01*
X149348314Y-122174000D01*
X149352000Y-122211423D01*
X149352000Y-122211425D01*
X149363026Y-122323377D01*
X149406598Y-122467014D01*
X149406599Y-122467015D01*
X149477355Y-122599392D01*
X149495183Y-122621115D01*
X149572578Y-122715422D01*
X149601654Y-122739284D01*
X151508843Y-124646473D01*
X151473000Y-124826665D01*
X151473000Y-125109335D01*
X151528147Y-125386574D01*
X151636320Y-125647727D01*
X151793363Y-125882759D01*
X151993241Y-126082637D01*
X152228273Y-126239680D01*
X152469501Y-126339600D01*
X133444143Y-126339600D01*
X133444143Y-123513000D01*
X137468928Y-123513000D01*
X137481188Y-123637482D01*
X137517498Y-123757180D01*
X137576463Y-123867494D01*
X137655815Y-123964185D01*
X137752506Y-124043537D01*
X137862820Y-124102502D01*
X137982518Y-124138812D01*
X138107000Y-124151072D01*
X138906250Y-124148000D01*
X139065000Y-123989250D01*
X139065000Y-122555000D01*
X139319000Y-122555000D01*
X139319000Y-123989250D01*
X139477750Y-124148000D01*
X140277000Y-124151072D01*
X140401482Y-124138812D01*
X140521180Y-124102502D01*
X140631494Y-124043537D01*
X140728185Y-123964185D01*
X140807537Y-123867494D01*
X140866502Y-123757180D01*
X140902812Y-123637482D01*
X140915072Y-123513000D01*
X140912000Y-122713750D01*
X140753250Y-122555000D01*
X139319000Y-122555000D01*
X139065000Y-122555000D01*
X137630750Y-122555000D01*
X137472000Y-122713750D01*
X137468928Y-123513000D01*
X133444143Y-123513000D01*
X133444143Y-123305000D01*
X127660400Y-123305000D01*
X127660400Y-121343000D01*
X137468928Y-121343000D01*
X137472000Y-122142250D01*
X137630750Y-122301000D01*
X139065000Y-122301000D01*
X139065000Y-120866750D01*
X139319000Y-120866750D01*
X139319000Y-122301000D01*
X140753250Y-122301000D01*
X140912000Y-122142250D01*
X140915072Y-121343000D01*
X140902812Y-121218518D01*
X140866502Y-121098820D01*
X140807537Y-120988506D01*
X140728185Y-120891815D01*
X140631494Y-120812463D01*
X140521180Y-120753498D01*
X140401482Y-120717188D01*
X140277000Y-120704928D01*
X139477750Y-120708000D01*
X139319000Y-120866750D01*
X139065000Y-120866750D01*
X138906250Y-120708000D01*
X138107000Y-120704928D01*
X137982518Y-120717188D01*
X137862820Y-120753498D01*
X137752506Y-120812463D01*
X137655815Y-120891815D01*
X137576463Y-120988506D01*
X137517498Y-121098820D01*
X137481188Y-121218518D01*
X137468928Y-121343000D01*
X127660400Y-121343000D01*
X127660400Y-102242344D01*
X137307000Y-102242344D01*
X137307000Y-102613656D01*
X137379439Y-102977834D01*
X137521534Y-103320882D01*
X137727825Y-103629618D01*
X137990382Y-103892175D01*
X138299118Y-104098466D01*
X138642166Y-104240561D01*
X139006344Y-104313000D01*
X139377656Y-104313000D01*
X139741834Y-104240561D01*
X140084882Y-104098466D01*
X140393618Y-103892175D01*
X140656175Y-103629618D01*
X140862466Y-103320882D01*
X141004561Y-102977834D01*
X141077000Y-102613656D01*
X141077000Y-102242344D01*
X141004561Y-101878166D01*
X140862466Y-101535118D01*
X140656175Y-101226382D01*
X140393618Y-100963825D01*
X140084882Y-100757534D01*
X139741834Y-100615439D01*
X139377656Y-100543000D01*
X139006344Y-100543000D01*
X138642166Y-100615439D01*
X138299118Y-100757534D01*
X137990382Y-100963825D01*
X137727825Y-101226382D01*
X137521534Y-101535118D01*
X137379439Y-101878166D01*
X137307000Y-102242344D01*
X127660400Y-102242344D01*
X127660400Y-45800444D01*
X146281364Y-45800444D01*
X146281782Y-45860298D01*
X146281364Y-45920153D01*
X146282263Y-45929319D01*
X146282263Y-45929328D01*
X146282264Y-45929331D01*
X146321127Y-46299084D01*
X146333161Y-46357711D01*
X146344378Y-46416512D01*
X146347043Y-46425339D01*
X146456985Y-46780503D01*
X146480166Y-46835648D01*
X146502601Y-46891177D01*
X146506929Y-46899314D01*
X146506931Y-46899319D01*
X146506934Y-46899323D01*
X146683763Y-47226363D01*
X146717209Y-47275950D01*
X146750008Y-47326072D01*
X146755836Y-47333217D01*
X146992825Y-47619687D01*
X147035269Y-47661835D01*
X147077174Y-47704627D01*
X147084279Y-47710505D01*
X147372396Y-47945488D01*
X147422253Y-47978613D01*
X147471639Y-48012428D01*
X147479750Y-48016814D01*
X147808023Y-48191359D01*
X147863338Y-48214158D01*
X147918375Y-48237747D01*
X147927184Y-48240474D01*
X148283106Y-48347933D01*
X148341754Y-48359546D01*
X148400370Y-48372005D01*
X148409537Y-48372968D01*
X148409541Y-48372968D01*
X148779557Y-48409248D01*
X148779559Y-48409248D01*
X148811561Y-48412400D01*
X159036439Y-48412400D01*
X159070321Y-48409063D01*
X159095041Y-48409063D01*
X159104212Y-48408098D01*
X159473686Y-48366655D01*
X159532185Y-48354221D01*
X159590948Y-48342585D01*
X159599757Y-48339858D01*
X159954144Y-48227440D01*
X160009119Y-48203878D01*
X160064498Y-48181052D01*
X160072610Y-48176666D01*
X160398412Y-47997554D01*
X160447782Y-47963750D01*
X160497654Y-47930615D01*
X160504759Y-47924737D01*
X160789566Y-47685755D01*
X160831400Y-47643036D01*
X160873917Y-47600815D01*
X160879745Y-47593668D01*
X161112710Y-47303918D01*
X161145468Y-47253859D01*
X161178956Y-47204211D01*
X161183285Y-47196069D01*
X161355534Y-46866587D01*
X161377959Y-46811082D01*
X161401151Y-46755912D01*
X161403816Y-46747084D01*
X161508788Y-46390419D01*
X161519999Y-46331647D01*
X161532039Y-46272993D01*
X161532939Y-46263816D01*
X161566636Y-45893556D01*
X161566218Y-45833702D01*
X161566636Y-45773847D01*
X161565737Y-45764681D01*
X161565737Y-45764672D01*
X161565735Y-45764664D01*
X161526873Y-45394916D01*
X161514840Y-45336295D01*
X161503622Y-45277488D01*
X161500957Y-45268661D01*
X161391015Y-44913497D01*
X161367822Y-44858323D01*
X161345399Y-44802823D01*
X161341069Y-44794681D01*
X161341069Y-44794680D01*
X161341066Y-44794676D01*
X161164237Y-44467637D01*
X161130801Y-44418065D01*
X161097992Y-44367928D01*
X161092163Y-44360782D01*
X160855175Y-44074313D01*
X160812714Y-44032148D01*
X160770826Y-43989373D01*
X160763721Y-43983495D01*
X160475604Y-43748512D01*
X160425747Y-43715387D01*
X160376361Y-43681572D01*
X160368250Y-43677186D01*
X160039978Y-43502641D01*
X159984637Y-43479831D01*
X159929625Y-43456253D01*
X159920816Y-43453526D01*
X159564893Y-43346066D01*
X159506201Y-43334445D01*
X159447629Y-43321995D01*
X159438463Y-43321032D01*
X159438459Y-43321032D01*
X159068443Y-43284752D01*
X159068441Y-43284752D01*
X159036439Y-43281600D01*
X148811561Y-43281600D01*
X148777679Y-43284937D01*
X148752959Y-43284937D01*
X148743788Y-43285902D01*
X148374314Y-43327345D01*
X148315790Y-43339785D01*
X148257052Y-43351415D01*
X148248243Y-43354142D01*
X147893856Y-43466560D01*
X147838869Y-43490127D01*
X147783502Y-43512948D01*
X147775390Y-43517334D01*
X147449587Y-43696446D01*
X147400200Y-43730262D01*
X147350346Y-43763385D01*
X147343241Y-43769263D01*
X147058433Y-44008245D01*
X147016561Y-44051003D01*
X146974083Y-44093186D01*
X146968255Y-44100332D01*
X146735289Y-44390083D01*
X146702509Y-44440176D01*
X146669044Y-44489790D01*
X146664718Y-44497927D01*
X146664715Y-44497931D01*
X146664715Y-44497932D01*
X146492466Y-44827413D01*
X146470041Y-44882918D01*
X146446849Y-44938088D01*
X146444184Y-44946916D01*
X146339212Y-45303581D01*
X146327999Y-45362359D01*
X146315961Y-45421007D01*
X146315061Y-45430184D01*
X146281364Y-45800444D01*
X127660400Y-45800444D01*
X127660400Y-42062400D01*
X180187600Y-42062400D01*
X180187601Y-126339600D01*
%TA.AperFunction,Conductor*%
D28*
G36*
X180187601Y-126339600D02*
G01*
X161605672Y-126339600D01*
X161682494Y-126298537D01*
X161779185Y-126219185D01*
X161858537Y-126122494D01*
X161917502Y-126012180D01*
X161953812Y-125892482D01*
X161966072Y-125768000D01*
X161963000Y-125253750D01*
X161804250Y-125095000D01*
X160655000Y-125095000D01*
X160655000Y-125115000D01*
X160401000Y-125115000D01*
X160401000Y-125095000D01*
X159251750Y-125095000D01*
X159093000Y-125253750D01*
X159089928Y-125768000D01*
X159102188Y-125892482D01*
X159138498Y-126012180D01*
X159197463Y-126122494D01*
X159276815Y-126219185D01*
X159373506Y-126298537D01*
X159450328Y-126339600D01*
X153346499Y-126339600D01*
X153587727Y-126239680D01*
X153822759Y-126082637D01*
X154022637Y-125882759D01*
X154179680Y-125647727D01*
X154287853Y-125386574D01*
X154343000Y-125109335D01*
X154343000Y-124826665D01*
X154287853Y-124549426D01*
X154179680Y-124288273D01*
X154022637Y-124053241D01*
X153822759Y-123853363D01*
X153590241Y-123698000D01*
X153822759Y-123542637D01*
X154022637Y-123342759D01*
X154179680Y-123107727D01*
X154287853Y-122846574D01*
X154343000Y-122569335D01*
X154343000Y-122286665D01*
X154287853Y-122009426D01*
X154179680Y-121748273D01*
X154022637Y-121513241D01*
X153822759Y-121313363D01*
X153590241Y-121158000D01*
X153822759Y-121002637D01*
X154022637Y-120802759D01*
X154124707Y-120650000D01*
X157672370Y-120650000D01*
X159128843Y-122106473D01*
X159093000Y-122286665D01*
X159093000Y-122569335D01*
X159148147Y-122846574D01*
X159256320Y-123107727D01*
X159413363Y-123342759D01*
X159611961Y-123541357D01*
X159603518Y-123542188D01*
X159483820Y-123578498D01*
X159373506Y-123637463D01*
X159276815Y-123716815D01*
X159197463Y-123813506D01*
X159138498Y-123923820D01*
X159102188Y-124043518D01*
X159089928Y-124168000D01*
X159093000Y-124682250D01*
X159251750Y-124841000D01*
X160401000Y-124841000D01*
X160401000Y-124821000D01*
X160655000Y-124821000D01*
X160655000Y-124841000D01*
X161804250Y-124841000D01*
X161938721Y-124706529D01*
X162014574Y-124714000D01*
X162014576Y-124714000D01*
X162051999Y-124717686D01*
X162089422Y-124714000D01*
X163099928Y-124714000D01*
X163099928Y-124806000D01*
X163112188Y-124930482D01*
X163148498Y-125050180D01*
X163207463Y-125160494D01*
X163286815Y-125257185D01*
X163383506Y-125336537D01*
X163493820Y-125395502D01*
X163613518Y-125431812D01*
X163738000Y-125444072D01*
X164938000Y-125444072D01*
X165062482Y-125431812D01*
X165182180Y-125395502D01*
X165292494Y-125336537D01*
X165309681Y-125322432D01*
X165436516Y-125380237D01*
X165673313Y-125436000D01*
X165916438Y-125444495D01*
X166156549Y-125405395D01*
X166384418Y-125320202D01*
X166460852Y-125279348D01*
X166508159Y-125055764D01*
X165838000Y-124385605D01*
X165823858Y-124399748D01*
X165644253Y-124220143D01*
X165658395Y-124206000D01*
X166017605Y-124206000D01*
X166687764Y-124876159D01*
X166911348Y-124828852D01*
X167012237Y-124607484D01*
X167068000Y-124370687D01*
X167076495Y-124127562D01*
X167037395Y-123887451D01*
X166952202Y-123659582D01*
X166911348Y-123583148D01*
X166687764Y-123535841D01*
X166017605Y-124206000D01*
X165658395Y-124206000D01*
X165644253Y-124191858D01*
X165823858Y-124012253D01*
X165838000Y-124026395D01*
X166508159Y-123356236D01*
X166460852Y-123132652D01*
X166239484Y-123031763D01*
X166002687Y-122976000D01*
X165759562Y-122967505D01*
X165519451Y-123006605D01*
X165305883Y-123086451D01*
X165292494Y-123075463D01*
X165182180Y-123016498D01*
X165100000Y-122991569D01*
X165100000Y-121156130D01*
X168179621Y-124235752D01*
X168203478Y-124264822D01*
X168319508Y-124360045D01*
X168451885Y-124430802D01*
X168513328Y-124449441D01*
X168513328Y-124523400D01*
X168525588Y-124647882D01*
X168561898Y-124767580D01*
X168620863Y-124877894D01*
X168700215Y-124974585D01*
X168796906Y-125053937D01*
X168907220Y-125112902D01*
X169026918Y-125149212D01*
X169151400Y-125161472D01*
X170751400Y-125161472D01*
X170875882Y-125149212D01*
X170995580Y-125112902D01*
X171105894Y-125053937D01*
X171202585Y-124974585D01*
X171213207Y-124961642D01*
X171465396Y-125080971D01*
X171739584Y-125149700D01*
X172021912Y-125163617D01*
X172301530Y-125122187D01*
X172567692Y-125027003D01*
X172692914Y-124960071D01*
X172764497Y-124716102D01*
X171951400Y-123903005D01*
X171937258Y-123917148D01*
X171757653Y-123737543D01*
X171771795Y-123723400D01*
X171757653Y-123709258D01*
X171937258Y-123529653D01*
X171951400Y-123543795D01*
X171965543Y-123529653D01*
X172145148Y-123709258D01*
X172131005Y-123723400D01*
X172944102Y-124536497D01*
X173188071Y-124464914D01*
X173308971Y-124209404D01*
X173377700Y-123935216D01*
X173391617Y-123652888D01*
X173350187Y-123373270D01*
X173255003Y-123107108D01*
X173188071Y-122981886D01*
X172944104Y-122910303D01*
X173053283Y-122801124D01*
X175903292Y-125651133D01*
X175935104Y-125689896D01*
X176089810Y-125816860D01*
X176266313Y-125911202D01*
X176399732Y-125951674D01*
X176457828Y-125969298D01*
X176477177Y-125971204D01*
X176607098Y-125984000D01*
X176607105Y-125984000D01*
X176656999Y-125988914D01*
X176706893Y-125984000D01*
X176761032Y-125984000D01*
X176874940Y-126044885D01*
X177093600Y-126111215D01*
X177264021Y-126128000D01*
X177827979Y-126128000D01*
X177998400Y-126111215D01*
X178217060Y-126044885D01*
X178418579Y-125937171D01*
X178595212Y-125792212D01*
X178740171Y-125615579D01*
X178847885Y-125414060D01*
X178914215Y-125195400D01*
X178936612Y-124968000D01*
X178914215Y-124740600D01*
X178847885Y-124521940D01*
X178746895Y-124333000D01*
X178847885Y-124144060D01*
X178914215Y-123925400D01*
X178936612Y-123698000D01*
X178914215Y-123470600D01*
X178850907Y-123261902D01*
X178885502Y-123197180D01*
X178921812Y-123077482D01*
X178934072Y-122953000D01*
X178931000Y-122713750D01*
X178772250Y-122555000D01*
X177999109Y-122555000D01*
X177998400Y-122554785D01*
X177827979Y-122538000D01*
X177399000Y-122538000D01*
X177399000Y-122301000D01*
X177419000Y-122301000D01*
X177419000Y-121426750D01*
X177673000Y-121426750D01*
X177673000Y-122301000D01*
X178772250Y-122301000D01*
X178931000Y-122142250D01*
X178934072Y-121903000D01*
X178921812Y-121778518D01*
X178885502Y-121658820D01*
X178826537Y-121548506D01*
X178747185Y-121451815D01*
X178650494Y-121372463D01*
X178540180Y-121313498D01*
X178420482Y-121277188D01*
X178296000Y-121264928D01*
X177831750Y-121268000D01*
X177673000Y-121426750D01*
X177419000Y-121426750D01*
X177260250Y-121268000D01*
X176796000Y-121264928D01*
X176671518Y-121277188D01*
X176551820Y-121313498D01*
X176441506Y-121372463D01*
X176344815Y-121451815D01*
X176265463Y-121548506D01*
X176206498Y-121658820D01*
X176170188Y-121778518D01*
X176157928Y-121903000D01*
X176158189Y-121923361D01*
X174413470Y-120178642D01*
X177485764Y-120178642D01*
X177558897Y-120423917D01*
X177816591Y-120546097D01*
X178093170Y-120615656D01*
X178378005Y-120629920D01*
X178660150Y-120588341D01*
X178928761Y-120492519D01*
X179057103Y-120423917D01*
X179130236Y-120178642D01*
X178308000Y-119356405D01*
X177485764Y-120178642D01*
X174413470Y-120178642D01*
X173481633Y-119246805D01*
X176854880Y-119246805D01*
X176896459Y-119528950D01*
X176992281Y-119797561D01*
X177060883Y-119925903D01*
X177306158Y-119999036D01*
X178128395Y-119176800D01*
X178487605Y-119176800D01*
X179309842Y-119999036D01*
X179555117Y-119925903D01*
X179677297Y-119668209D01*
X179746856Y-119391630D01*
X179761120Y-119106795D01*
X179719541Y-118824650D01*
X179623719Y-118556039D01*
X179555117Y-118427697D01*
X179309842Y-118354564D01*
X178487605Y-119176800D01*
X178128395Y-119176800D01*
X177306158Y-118354564D01*
X177060883Y-118427697D01*
X176938703Y-118685391D01*
X176869144Y-118961970D01*
X176854880Y-119246805D01*
X173481633Y-119246805D01*
X172409786Y-118174958D01*
X177485764Y-118174958D01*
X178308000Y-118997195D01*
X179130236Y-118174958D01*
X179057103Y-117929683D01*
X178799409Y-117807503D01*
X178522830Y-117737944D01*
X178237995Y-117723680D01*
X177955850Y-117765259D01*
X177687239Y-117861081D01*
X177558897Y-117929683D01*
X177485764Y-118174958D01*
X172409786Y-118174958D01*
X171450000Y-117215172D01*
X171450000Y-115516707D01*
X171602759Y-115414637D01*
X171802637Y-115214759D01*
X171959680Y-114979727D01*
X172067853Y-114718574D01*
X172123000Y-114441335D01*
X172123000Y-114158665D01*
X172067853Y-113881426D01*
X171959680Y-113620273D01*
X171802637Y-113385241D01*
X171602759Y-113185363D01*
X171367727Y-113028320D01*
X171106574Y-112920147D01*
X170829335Y-112865000D01*
X170546665Y-112865000D01*
X170269426Y-112920147D01*
X170008273Y-113028320D01*
X169926000Y-113083293D01*
X169926000Y-107896707D01*
X170008273Y-107951680D01*
X170269426Y-108059853D01*
X170546665Y-108115000D01*
X170829335Y-108115000D01*
X171106574Y-108059853D01*
X171367727Y-107951680D01*
X171450001Y-107896706D01*
X171450001Y-112472088D01*
X171445085Y-112522000D01*
X171464702Y-112721170D01*
X171508333Y-112865000D01*
X171522799Y-112912687D01*
X171617141Y-113089190D01*
X171744105Y-113243896D01*
X171782868Y-113275708D01*
X172809000Y-114301841D01*
X172809000Y-114441335D01*
X172864147Y-114718574D01*
X172972320Y-114979727D01*
X173129363Y-115214759D01*
X173329241Y-115414637D01*
X173564273Y-115571680D01*
X173825426Y-115679853D01*
X174102665Y-115735000D01*
X174385335Y-115735000D01*
X174662574Y-115679853D01*
X174923727Y-115571680D01*
X175158759Y-115414637D01*
X175358637Y-115214759D01*
X175515680Y-114979727D01*
X175623853Y-114718574D01*
X175679000Y-114441335D01*
X175679000Y-114158665D01*
X175623853Y-113881426D01*
X175515680Y-113620273D01*
X175358637Y-113385241D01*
X175158759Y-113185363D01*
X174923727Y-113028320D01*
X174662574Y-112920147D01*
X174385335Y-112865000D01*
X174245841Y-112865000D01*
X173482000Y-112101160D01*
X173482000Y-107896707D01*
X173564273Y-107951680D01*
X173825426Y-108059853D01*
X174102665Y-108115000D01*
X174385335Y-108115000D01*
X174662574Y-108059853D01*
X174923727Y-107951680D01*
X175158759Y-107794637D01*
X175358637Y-107594759D01*
X175515680Y-107359727D01*
X175623853Y-107098574D01*
X175679000Y-106821335D01*
X175679000Y-106538665D01*
X175623853Y-106261426D01*
X175515680Y-106000273D01*
X175358637Y-105765241D01*
X175158759Y-105565363D01*
X174923727Y-105408320D01*
X174662574Y-105300147D01*
X174385335Y-105245000D01*
X174102665Y-105245000D01*
X173825426Y-105300147D01*
X173564273Y-105408320D01*
X173482000Y-105463293D01*
X173482000Y-103835200D01*
X176857128Y-103835200D01*
X176857128Y-105460800D01*
X176869388Y-105585282D01*
X176905698Y-105704980D01*
X176964663Y-105815294D01*
X177044015Y-105911985D01*
X177140706Y-105991337D01*
X177251020Y-106050302D01*
X177370718Y-106086612D01*
X177495200Y-106098872D01*
X179120800Y-106098872D01*
X179245282Y-106086612D01*
X179364980Y-106050302D01*
X179475294Y-105991337D01*
X179571985Y-105911985D01*
X179651337Y-105815294D01*
X179710302Y-105704980D01*
X179746612Y-105585282D01*
X179758872Y-105460800D01*
X179758872Y-103835200D01*
X179746612Y-103710718D01*
X179710302Y-103591020D01*
X179651337Y-103480706D01*
X179571985Y-103384015D01*
X179475294Y-103304663D01*
X179364980Y-103245698D01*
X179245282Y-103209388D01*
X179120800Y-103197128D01*
X177495200Y-103197128D01*
X177370718Y-103209388D01*
X177251020Y-103245698D01*
X177140706Y-103304663D01*
X177044015Y-103384015D01*
X176964663Y-103480706D01*
X176905698Y-103591020D01*
X176869388Y-103710718D01*
X176857128Y-103835200D01*
X173482000Y-103835200D01*
X173482000Y-69899893D01*
X173486914Y-69849999D01*
X173482000Y-69800105D01*
X173482000Y-69800098D01*
X173467298Y-69650829D01*
X173409202Y-69459313D01*
X173314860Y-69282810D01*
X173187896Y-69128104D01*
X173149133Y-69096292D01*
X170933712Y-66880872D01*
X170901896Y-66842104D01*
X170747190Y-66715140D01*
X170570687Y-66620798D01*
X170379171Y-66562702D01*
X170229902Y-66548000D01*
X170180000Y-66543085D01*
X170130098Y-66548000D01*
X162609893Y-66548000D01*
X162559999Y-66543086D01*
X162510105Y-66548000D01*
X162510098Y-66548000D01*
X162360829Y-66562702D01*
X162169313Y-66620798D01*
X161992810Y-66715140D01*
X161838104Y-66842104D01*
X161806292Y-66880867D01*
X160372160Y-68315000D01*
X160122816Y-68315000D01*
X159826257Y-68373989D01*
X159546905Y-68489701D01*
X159295495Y-68657688D01*
X159081688Y-68871495D01*
X158913701Y-69122905D01*
X158797989Y-69402257D01*
X158739000Y-69698816D01*
X158739000Y-70001184D01*
X158797989Y-70297743D01*
X158913701Y-70577095D01*
X159081688Y-70828505D01*
X159148127Y-70894944D01*
X159129820Y-70900498D01*
X159019506Y-70959463D01*
X158922815Y-71038815D01*
X158843463Y-71135506D01*
X158784498Y-71245820D01*
X158748188Y-71365518D01*
X158747353Y-71374000D01*
X149100647Y-71374000D01*
X149099812Y-71365518D01*
X149063502Y-71245820D01*
X149004537Y-71135506D01*
X148925185Y-71038815D01*
X148828494Y-70959463D01*
X148718180Y-70900498D01*
X148699873Y-70894944D01*
X148766312Y-70828505D01*
X148934299Y-70577095D01*
X149050011Y-70297743D01*
X149109000Y-70001184D01*
X149109000Y-69698816D01*
X149050011Y-69402257D01*
X148934299Y-69122905D01*
X148766312Y-68871495D01*
X148552505Y-68657688D01*
X148301095Y-68489701D01*
X148021743Y-68373989D01*
X147725184Y-68315000D01*
X147475841Y-68315000D01*
X146041712Y-66880872D01*
X146009896Y-66842104D01*
X145855190Y-66715140D01*
X145678687Y-66620798D01*
X145487171Y-66562702D01*
X145337902Y-66548000D01*
X145288000Y-66543085D01*
X145238098Y-66548000D01*
X142289893Y-66548000D01*
X142239999Y-66543086D01*
X142190105Y-66548000D01*
X142190098Y-66548000D01*
X142040829Y-66562702D01*
X141849313Y-66620798D01*
X141672810Y-66715140D01*
X141518104Y-66842104D01*
X141486292Y-66880867D01*
X139270868Y-69096292D01*
X139232105Y-69128104D01*
X139105141Y-69282810D01*
X139044197Y-69396829D01*
X139010799Y-69459313D01*
X138952702Y-69650830D01*
X138933085Y-69850000D01*
X138938001Y-69899911D01*
X138938000Y-72340098D01*
X138933085Y-72390000D01*
X138938000Y-72439901D01*
X138952702Y-72589170D01*
X139010798Y-72780686D01*
X139105140Y-72957190D01*
X139232104Y-73111896D01*
X139270872Y-73143712D01*
X151892001Y-85764842D01*
X151892000Y-105666604D01*
X151793363Y-105765241D01*
X151636320Y-106000273D01*
X151528147Y-106261426D01*
X151473000Y-106538665D01*
X151473000Y-106821335D01*
X151528147Y-107098574D01*
X151636320Y-107359727D01*
X151793363Y-107594759D01*
X151993241Y-107794637D01*
X152228273Y-107951680D01*
X152489426Y-108059853D01*
X152766665Y-108115000D01*
X153049335Y-108115000D01*
X153326574Y-108059853D01*
X153587727Y-107951680D01*
X153822759Y-107794637D01*
X154022637Y-107594759D01*
X154179680Y-107359727D01*
X154287853Y-107098574D01*
X154343000Y-106821335D01*
X154343000Y-106538665D01*
X155029000Y-106538665D01*
X155029000Y-106821335D01*
X155084147Y-107098574D01*
X155192320Y-107359727D01*
X155349363Y-107594759D01*
X155549241Y-107794637D01*
X155784273Y-107951680D01*
X156045426Y-108059853D01*
X156322665Y-108115000D01*
X156605335Y-108115000D01*
X156882574Y-108059853D01*
X157143727Y-107951680D01*
X157378759Y-107794637D01*
X157578637Y-107594759D01*
X157735680Y-107359727D01*
X157843853Y-107098574D01*
X157899000Y-106821335D01*
X157899000Y-106538665D01*
X158585000Y-106538665D01*
X158585000Y-106821335D01*
X158640147Y-107098574D01*
X158748320Y-107359727D01*
X158905363Y-107594759D01*
X159105241Y-107794637D01*
X159340273Y-107951680D01*
X159601426Y-108059853D01*
X159878665Y-108115000D01*
X160161335Y-108115000D01*
X160438574Y-108059853D01*
X160699727Y-107951680D01*
X160934759Y-107794637D01*
X161134637Y-107594759D01*
X161291680Y-107359727D01*
X161399853Y-107098574D01*
X161455000Y-106821335D01*
X161455000Y-106538665D01*
X161399853Y-106261426D01*
X161291680Y-106000273D01*
X161134637Y-105765241D01*
X160934759Y-105565363D01*
X160699727Y-105408320D01*
X160438574Y-105300147D01*
X160161335Y-105245000D01*
X159878665Y-105245000D01*
X159601426Y-105300147D01*
X159340273Y-105408320D01*
X159105241Y-105565363D01*
X158905363Y-105765241D01*
X158748320Y-106000273D01*
X158640147Y-106261426D01*
X158585000Y-106538665D01*
X157899000Y-106538665D01*
X157843853Y-106261426D01*
X157735680Y-106000273D01*
X157578637Y-105765241D01*
X157378759Y-105565363D01*
X157143727Y-105408320D01*
X156882574Y-105300147D01*
X156605335Y-105245000D01*
X156322665Y-105245000D01*
X156045426Y-105300147D01*
X155784273Y-105408320D01*
X155549241Y-105565363D01*
X155349363Y-105765241D01*
X155192320Y-106000273D01*
X155084147Y-106261426D01*
X155029000Y-106538665D01*
X154343000Y-106538665D01*
X154287853Y-106261426D01*
X154179680Y-106000273D01*
X154022637Y-105765241D01*
X153924000Y-105666604D01*
X153924000Y-85393893D01*
X153928914Y-85343999D01*
X153924000Y-85294105D01*
X153924000Y-85294098D01*
X153909298Y-85144829D01*
X153851202Y-84953313D01*
X153756860Y-84776810D01*
X153629896Y-84622104D01*
X153591133Y-84590292D01*
X140970000Y-71969160D01*
X140970000Y-70270840D01*
X142660841Y-68580000D01*
X144867160Y-68580000D01*
X146039000Y-69751841D01*
X146039000Y-70001184D01*
X146097989Y-70297743D01*
X146213701Y-70577095D01*
X146381688Y-70828505D01*
X146448127Y-70894944D01*
X146429820Y-70900498D01*
X146319506Y-70959463D01*
X146222815Y-71038815D01*
X146143463Y-71135506D01*
X146084498Y-71245820D01*
X146048188Y-71365518D01*
X146035928Y-71490000D01*
X146035928Y-73290000D01*
X146048188Y-73414482D01*
X146084498Y-73534180D01*
X146143463Y-73644494D01*
X146222815Y-73741185D01*
X146319506Y-73820537D01*
X146429820Y-73879502D01*
X146549518Y-73915812D01*
X146674000Y-73928072D01*
X148474000Y-73928072D01*
X148598482Y-73915812D01*
X148718180Y-73879502D01*
X148828494Y-73820537D01*
X148925185Y-73741185D01*
X149004537Y-73644494D01*
X149063502Y-73534180D01*
X149099812Y-73414482D01*
X149100647Y-73406000D01*
X158747353Y-73406000D01*
X158748188Y-73414482D01*
X158784498Y-73534180D01*
X158843463Y-73644494D01*
X158922815Y-73741185D01*
X159019506Y-73820537D01*
X159129820Y-73879502D01*
X159249518Y-73915812D01*
X159374000Y-73928072D01*
X161174000Y-73928072D01*
X161298482Y-73915812D01*
X161418180Y-73879502D01*
X161528494Y-73820537D01*
X161625185Y-73741185D01*
X161704537Y-73644494D01*
X161763502Y-73534180D01*
X161799812Y-73414482D01*
X161812072Y-73290000D01*
X161812072Y-72288768D01*
X163488841Y-70612000D01*
X168489160Y-70612000D01*
X169418001Y-71540842D01*
X169418000Y-103465159D01*
X168964339Y-103918820D01*
X168974072Y-103820000D01*
X168974072Y-101920000D01*
X168961812Y-101795518D01*
X168925502Y-101675820D01*
X168866537Y-101565506D01*
X168787185Y-101468815D01*
X168690494Y-101389463D01*
X168580180Y-101330498D01*
X168460482Y-101294188D01*
X168336000Y-101281928D01*
X166436000Y-101281928D01*
X166311518Y-101294188D01*
X166191820Y-101330498D01*
X166081506Y-101389463D01*
X165984815Y-101468815D01*
X165905463Y-101565506D01*
X165874186Y-101624021D01*
X165636779Y-101465391D01*
X165348327Y-101345911D01*
X165042109Y-101285000D01*
X164729891Y-101285000D01*
X164423673Y-101345911D01*
X164135221Y-101465391D01*
X163875621Y-101638850D01*
X163654850Y-101859621D01*
X163636000Y-101887832D01*
X163617150Y-101859621D01*
X163396379Y-101638850D01*
X163136779Y-101465391D01*
X162848327Y-101345911D01*
X162542109Y-101285000D01*
X162229891Y-101285000D01*
X161923673Y-101345911D01*
X161635221Y-101465391D01*
X161375621Y-101638850D01*
X161154850Y-101859621D01*
X160981391Y-102119221D01*
X160861911Y-102407673D01*
X160801000Y-102713891D01*
X160801000Y-103026109D01*
X160861911Y-103332327D01*
X160981391Y-103620779D01*
X161154850Y-103880379D01*
X161375621Y-104101150D01*
X161635221Y-104274609D01*
X161923673Y-104394089D01*
X162229891Y-104455000D01*
X162542109Y-104455000D01*
X162848327Y-104394089D01*
X163136779Y-104274609D01*
X163396379Y-104101150D01*
X163617150Y-103880379D01*
X163636000Y-103852168D01*
X163654850Y-103880379D01*
X163875621Y-104101150D01*
X164135221Y-104274609D01*
X164423673Y-104394089D01*
X164729891Y-104455000D01*
X165042109Y-104455000D01*
X165348327Y-104394089D01*
X165636779Y-104274609D01*
X165874186Y-104115979D01*
X165905463Y-104174494D01*
X165984815Y-104271185D01*
X166081506Y-104350537D01*
X166191820Y-104409502D01*
X166311518Y-104445812D01*
X166436000Y-104458072D01*
X168336000Y-104458072D01*
X168434820Y-104448339D01*
X168226872Y-104656288D01*
X168188104Y-104688104D01*
X168061140Y-104842810D01*
X167966798Y-105019314D01*
X167908702Y-105210829D01*
X167908702Y-105210830D01*
X167889085Y-105410000D01*
X167894000Y-105459902D01*
X167894000Y-105513149D01*
X167873514Y-105443329D01*
X167618004Y-105322429D01*
X167343816Y-105253700D01*
X167061488Y-105239783D01*
X166781870Y-105281213D01*
X166515708Y-105376397D01*
X166390486Y-105443329D01*
X166318903Y-105687298D01*
X167132000Y-106500395D01*
X167146143Y-106486253D01*
X167325748Y-106665858D01*
X167311605Y-106680000D01*
X167325748Y-106694143D01*
X167146143Y-106873748D01*
X167132000Y-106859605D01*
X166318903Y-107672702D01*
X166390486Y-107916671D01*
X166645996Y-108037571D01*
X166920184Y-108106300D01*
X167202512Y-108120217D01*
X167482130Y-108078787D01*
X167748292Y-107983603D01*
X167873514Y-107916671D01*
X167894000Y-107846850D01*
X167894001Y-113083293D01*
X167811727Y-113028320D01*
X167550574Y-112920147D01*
X167273335Y-112865000D01*
X166990665Y-112865000D01*
X166810474Y-112900843D01*
X164338000Y-110428370D01*
X164338000Y-107896707D01*
X164490759Y-107794637D01*
X164690637Y-107594759D01*
X164847680Y-107359727D01*
X164955853Y-107098574D01*
X165011000Y-106821335D01*
X165011000Y-106750512D01*
X165691783Y-106750512D01*
X165733213Y-107030130D01*
X165828397Y-107296292D01*
X165895329Y-107421514D01*
X166139298Y-107493097D01*
X166952395Y-106680000D01*
X166139298Y-105866903D01*
X165895329Y-105938486D01*
X165774429Y-106193996D01*
X165705700Y-106468184D01*
X165691783Y-106750512D01*
X165011000Y-106750512D01*
X165011000Y-106538665D01*
X164955853Y-106261426D01*
X164847680Y-106000273D01*
X164690637Y-105765241D01*
X164490759Y-105565363D01*
X164255727Y-105408320D01*
X163994574Y-105300147D01*
X163717335Y-105245000D01*
X163434665Y-105245000D01*
X163157426Y-105300147D01*
X162896273Y-105408320D01*
X162661241Y-105565363D01*
X162461363Y-105765241D01*
X162304320Y-106000273D01*
X162196147Y-106261426D01*
X162141000Y-106538665D01*
X162141000Y-106821335D01*
X162196147Y-107098574D01*
X162304320Y-107359727D01*
X162461363Y-107594759D01*
X162661241Y-107794637D01*
X162814000Y-107896707D01*
X162814001Y-110706567D01*
X162810314Y-110744000D01*
X162825027Y-110893378D01*
X162868599Y-111037015D01*
X162939355Y-111169392D01*
X163010721Y-111256351D01*
X163034579Y-111285422D01*
X163063649Y-111309279D01*
X165732843Y-113978474D01*
X165697000Y-114158665D01*
X165697000Y-114441335D01*
X165732843Y-114621527D01*
X164587654Y-115766716D01*
X164558578Y-115790578D01*
X164502983Y-115858322D01*
X164463355Y-115906608D01*
X164430462Y-115968147D01*
X164392598Y-116038986D01*
X164349026Y-116182623D01*
X164338000Y-116294574D01*
X164334314Y-116332000D01*
X164338000Y-116369423D01*
X164338000Y-117540369D01*
X161419157Y-114621527D01*
X161455000Y-114441335D01*
X161455000Y-114158665D01*
X162141000Y-114158665D01*
X162141000Y-114441335D01*
X162196147Y-114718574D01*
X162304320Y-114979727D01*
X162461363Y-115214759D01*
X162661241Y-115414637D01*
X162896273Y-115571680D01*
X163157426Y-115679853D01*
X163434665Y-115735000D01*
X163717335Y-115735000D01*
X163994574Y-115679853D01*
X164255727Y-115571680D01*
X164490759Y-115414637D01*
X164690637Y-115214759D01*
X164847680Y-114979727D01*
X164955853Y-114718574D01*
X165011000Y-114441335D01*
X165011000Y-114158665D01*
X164955853Y-113881426D01*
X164847680Y-113620273D01*
X164690637Y-113385241D01*
X164490759Y-113185363D01*
X164255727Y-113028320D01*
X163994574Y-112920147D01*
X163717335Y-112865000D01*
X163434665Y-112865000D01*
X163157426Y-112920147D01*
X162896273Y-113028320D01*
X162661241Y-113185363D01*
X162461363Y-113385241D01*
X162304320Y-113620273D01*
X162196147Y-113881426D01*
X162141000Y-114158665D01*
X161455000Y-114158665D01*
X161399853Y-113881426D01*
X161291680Y-113620273D01*
X161134637Y-113385241D01*
X160934759Y-113185363D01*
X160699727Y-113028320D01*
X160438574Y-112920147D01*
X160161335Y-112865000D01*
X159878665Y-112865000D01*
X159601426Y-112920147D01*
X159340273Y-113028320D01*
X159105241Y-113185363D01*
X158905363Y-113385241D01*
X158748320Y-113620273D01*
X158640147Y-113881426D01*
X158585000Y-114158665D01*
X158585000Y-114441335D01*
X158640147Y-114718574D01*
X158748320Y-114979727D01*
X158905363Y-115214759D01*
X159105241Y-115414637D01*
X159340273Y-115571680D01*
X159601426Y-115679853D01*
X159878665Y-115735000D01*
X160161335Y-115735000D01*
X160341527Y-115699157D01*
X160555370Y-115913000D01*
X160386665Y-115913000D01*
X160109426Y-115968147D01*
X159848273Y-116076320D01*
X159613241Y-116233363D01*
X159413363Y-116433241D01*
X159311293Y-116586000D01*
X156271631Y-116586000D01*
X154307157Y-114621527D01*
X154343000Y-114441335D01*
X154343000Y-114158665D01*
X155029000Y-114158665D01*
X155029000Y-114441335D01*
X155084147Y-114718574D01*
X155192320Y-114979727D01*
X155349363Y-115214759D01*
X155549241Y-115414637D01*
X155784273Y-115571680D01*
X156045426Y-115679853D01*
X156322665Y-115735000D01*
X156605335Y-115735000D01*
X156882574Y-115679853D01*
X157143727Y-115571680D01*
X157378759Y-115414637D01*
X157578637Y-115214759D01*
X157735680Y-114979727D01*
X157843853Y-114718574D01*
X157899000Y-114441335D01*
X157899000Y-114158665D01*
X157843853Y-113881426D01*
X157735680Y-113620273D01*
X157578637Y-113385241D01*
X157378759Y-113185363D01*
X157143727Y-113028320D01*
X156882574Y-112920147D01*
X156605335Y-112865000D01*
X156322665Y-112865000D01*
X156045426Y-112920147D01*
X155784273Y-113028320D01*
X155549241Y-113185363D01*
X155349363Y-113385241D01*
X155192320Y-113620273D01*
X155084147Y-113881426D01*
X155029000Y-114158665D01*
X154343000Y-114158665D01*
X154287853Y-113881426D01*
X154179680Y-113620273D01*
X154022637Y-113385241D01*
X153822759Y-113185363D01*
X153587727Y-113028320D01*
X153326574Y-112920147D01*
X153049335Y-112865000D01*
X152766665Y-112865000D01*
X152489426Y-112920147D01*
X152228273Y-113028320D01*
X151993241Y-113185363D01*
X151793363Y-113385241D01*
X151636320Y-113620273D01*
X151528147Y-113881426D01*
X151473000Y-114158665D01*
X151473000Y-114441335D01*
X151508843Y-114621527D01*
X149601649Y-116528721D01*
X149572579Y-116552578D01*
X149548722Y-116581648D01*
X149548721Y-116581649D01*
X149477355Y-116668608D01*
X149406599Y-116800985D01*
X149363027Y-116944622D01*
X149348314Y-117094000D01*
X149352001Y-117131433D01*
X149352000Y-122136577D01*
X149348314Y-122174000D01*
X149352000Y-122211423D01*
X149352000Y-122211425D01*
X149363026Y-122323377D01*
X149406598Y-122467014D01*
X149406599Y-122467015D01*
X149477355Y-122599392D01*
X149495183Y-122621115D01*
X149572578Y-122715422D01*
X149601654Y-122739284D01*
X151508843Y-124646473D01*
X151473000Y-124826665D01*
X151473000Y-125109335D01*
X151528147Y-125386574D01*
X151636320Y-125647727D01*
X151793363Y-125882759D01*
X151993241Y-126082637D01*
X152228273Y-126239680D01*
X152469501Y-126339600D01*
X133444143Y-126339600D01*
X133444143Y-123513000D01*
X137468928Y-123513000D01*
X137481188Y-123637482D01*
X137517498Y-123757180D01*
X137576463Y-123867494D01*
X137655815Y-123964185D01*
X137752506Y-124043537D01*
X137862820Y-124102502D01*
X137982518Y-124138812D01*
X138107000Y-124151072D01*
X138906250Y-124148000D01*
X139065000Y-123989250D01*
X139065000Y-122555000D01*
X139319000Y-122555000D01*
X139319000Y-123989250D01*
X139477750Y-124148000D01*
X140277000Y-124151072D01*
X140401482Y-124138812D01*
X140521180Y-124102502D01*
X140631494Y-124043537D01*
X140728185Y-123964185D01*
X140807537Y-123867494D01*
X140866502Y-123757180D01*
X140902812Y-123637482D01*
X140915072Y-123513000D01*
X140912000Y-122713750D01*
X140753250Y-122555000D01*
X139319000Y-122555000D01*
X139065000Y-122555000D01*
X137630750Y-122555000D01*
X137472000Y-122713750D01*
X137468928Y-123513000D01*
X133444143Y-123513000D01*
X133444143Y-123305000D01*
X127660400Y-123305000D01*
X127660400Y-121343000D01*
X137468928Y-121343000D01*
X137472000Y-122142250D01*
X137630750Y-122301000D01*
X139065000Y-122301000D01*
X139065000Y-120866750D01*
X139319000Y-120866750D01*
X139319000Y-122301000D01*
X140753250Y-122301000D01*
X140912000Y-122142250D01*
X140915072Y-121343000D01*
X140902812Y-121218518D01*
X140866502Y-121098820D01*
X140807537Y-120988506D01*
X140728185Y-120891815D01*
X140631494Y-120812463D01*
X140521180Y-120753498D01*
X140401482Y-120717188D01*
X140277000Y-120704928D01*
X139477750Y-120708000D01*
X139319000Y-120866750D01*
X139065000Y-120866750D01*
X138906250Y-120708000D01*
X138107000Y-120704928D01*
X137982518Y-120717188D01*
X137862820Y-120753498D01*
X137752506Y-120812463D01*
X137655815Y-120891815D01*
X137576463Y-120988506D01*
X137517498Y-121098820D01*
X137481188Y-121218518D01*
X137468928Y-121343000D01*
X127660400Y-121343000D01*
X127660400Y-102242344D01*
X137307000Y-102242344D01*
X137307000Y-102613656D01*
X137379439Y-102977834D01*
X137521534Y-103320882D01*
X137727825Y-103629618D01*
X137990382Y-103892175D01*
X138299118Y-104098466D01*
X138642166Y-104240561D01*
X139006344Y-104313000D01*
X139377656Y-104313000D01*
X139741834Y-104240561D01*
X140084882Y-104098466D01*
X140393618Y-103892175D01*
X140656175Y-103629618D01*
X140862466Y-103320882D01*
X141004561Y-102977834D01*
X141077000Y-102613656D01*
X141077000Y-102242344D01*
X141004561Y-101878166D01*
X140862466Y-101535118D01*
X140656175Y-101226382D01*
X140393618Y-100963825D01*
X140084882Y-100757534D01*
X139741834Y-100615439D01*
X139377656Y-100543000D01*
X139006344Y-100543000D01*
X138642166Y-100615439D01*
X138299118Y-100757534D01*
X137990382Y-100963825D01*
X137727825Y-101226382D01*
X137521534Y-101535118D01*
X137379439Y-101878166D01*
X137307000Y-102242344D01*
X127660400Y-102242344D01*
X127660400Y-45800444D01*
X146281364Y-45800444D01*
X146281782Y-45860298D01*
X146281364Y-45920153D01*
X146282263Y-45929319D01*
X146282263Y-45929328D01*
X146282264Y-45929331D01*
X146321127Y-46299084D01*
X146333161Y-46357711D01*
X146344378Y-46416512D01*
X146347043Y-46425339D01*
X146456985Y-46780503D01*
X146480166Y-46835648D01*
X146502601Y-46891177D01*
X146506929Y-46899314D01*
X146506931Y-46899319D01*
X146506934Y-46899323D01*
X146683763Y-47226363D01*
X146717209Y-47275950D01*
X146750008Y-47326072D01*
X146755836Y-47333217D01*
X146992825Y-47619687D01*
X147035269Y-47661835D01*
X147077174Y-47704627D01*
X147084279Y-47710505D01*
X147372396Y-47945488D01*
X147422253Y-47978613D01*
X147471639Y-48012428D01*
X147479750Y-48016814D01*
X147808023Y-48191359D01*
X147863338Y-48214158D01*
X147918375Y-48237747D01*
X147927184Y-48240474D01*
X148283106Y-48347933D01*
X148341754Y-48359546D01*
X148400370Y-48372005D01*
X148409537Y-48372968D01*
X148409541Y-48372968D01*
X148779557Y-48409248D01*
X148779559Y-48409248D01*
X148811561Y-48412400D01*
X159036439Y-48412400D01*
X159070321Y-48409063D01*
X159095041Y-48409063D01*
X159104212Y-48408098D01*
X159473686Y-48366655D01*
X159532185Y-48354221D01*
X159590948Y-48342585D01*
X159599757Y-48339858D01*
X159954144Y-48227440D01*
X160009119Y-48203878D01*
X160064498Y-48181052D01*
X160072610Y-48176666D01*
X160398412Y-47997554D01*
X160447782Y-47963750D01*
X160497654Y-47930615D01*
X160504759Y-47924737D01*
X160789566Y-47685755D01*
X160831400Y-47643036D01*
X160873917Y-47600815D01*
X160879745Y-47593668D01*
X161112710Y-47303918D01*
X161145468Y-47253859D01*
X161178956Y-47204211D01*
X161183285Y-47196069D01*
X161355534Y-46866587D01*
X161377959Y-46811082D01*
X161401151Y-46755912D01*
X161403816Y-46747084D01*
X161508788Y-46390419D01*
X161519999Y-46331647D01*
X161532039Y-46272993D01*
X161532939Y-46263816D01*
X161566636Y-45893556D01*
X161566218Y-45833702D01*
X161566636Y-45773847D01*
X161565737Y-45764681D01*
X161565737Y-45764672D01*
X161565735Y-45764664D01*
X161526873Y-45394916D01*
X161514840Y-45336295D01*
X161503622Y-45277488D01*
X161500957Y-45268661D01*
X161391015Y-44913497D01*
X161367822Y-44858323D01*
X161345399Y-44802823D01*
X161341069Y-44794681D01*
X161341069Y-44794680D01*
X161341066Y-44794676D01*
X161164237Y-44467637D01*
X161130801Y-44418065D01*
X161097992Y-44367928D01*
X161092163Y-44360782D01*
X160855175Y-44074313D01*
X160812714Y-44032148D01*
X160770826Y-43989373D01*
X160763721Y-43983495D01*
X160475604Y-43748512D01*
X160425747Y-43715387D01*
X160376361Y-43681572D01*
X160368250Y-43677186D01*
X160039978Y-43502641D01*
X159984637Y-43479831D01*
X159929625Y-43456253D01*
X159920816Y-43453526D01*
X159564893Y-43346066D01*
X159506201Y-43334445D01*
X159447629Y-43321995D01*
X159438463Y-43321032D01*
X159438459Y-43321032D01*
X159068443Y-43284752D01*
X159068441Y-43284752D01*
X159036439Y-43281600D01*
X148811561Y-43281600D01*
X148777679Y-43284937D01*
X148752959Y-43284937D01*
X148743788Y-43285902D01*
X148374314Y-43327345D01*
X148315790Y-43339785D01*
X148257052Y-43351415D01*
X148248243Y-43354142D01*
X147893856Y-43466560D01*
X147838869Y-43490127D01*
X147783502Y-43512948D01*
X147775390Y-43517334D01*
X147449587Y-43696446D01*
X147400200Y-43730262D01*
X147350346Y-43763385D01*
X147343241Y-43769263D01*
X147058433Y-44008245D01*
X147016561Y-44051003D01*
X146974083Y-44093186D01*
X146968255Y-44100332D01*
X146735289Y-44390083D01*
X146702509Y-44440176D01*
X146669044Y-44489790D01*
X146664718Y-44497927D01*
X146664715Y-44497931D01*
X146664715Y-44497932D01*
X146492466Y-44827413D01*
X146470041Y-44882918D01*
X146446849Y-44938088D01*
X146444184Y-44946916D01*
X146339212Y-45303581D01*
X146327999Y-45362359D01*
X146315961Y-45421007D01*
X146315061Y-45430184D01*
X146281364Y-45800444D01*
X127660400Y-45800444D01*
X127660400Y-42062400D01*
X180187600Y-42062400D01*
X180187601Y-126339600D01*
G37*
%TD.AperFunction*%
%TD*%
M02*
