%TF.GenerationSoftware,KiCad,Pcbnew,(5.1.8)-1*%
%TF.CreationDate,2020-11-13T01:10:14+01:00*%
%TF.ProjectId,Emoji_Badge_StuCo,456d6f6a-695f-4426-9164-67655f537475,v01*%
%TF.SameCoordinates,Original*%
%TF.FileFunction,Legend,Bot*%
%TF.FilePolarity,Positive*%
%FSLAX46Y46*%
G04 Gerber Fmt 4.6, Leading zero omitted, Abs format (unit mm)*
G04 Created by KiCad (PCBNEW (5.1.8)-1) date 2020-11-13 01:10:14*
%MOMM*%
%LPD*%
G01*
G04 APERTURE LIST*
%ADD10C,0.150000*%
%ADD11C,0.149860*%
%ADD12C,0.508000*%
G04 APERTURE END LIST*
D10*
X178370895Y-108196138D02*
X178951466Y-108196138D01*
X179067580Y-108157433D01*
X179144990Y-108080023D01*
X179183695Y-107963909D01*
X179183695Y-107886500D01*
X179183695Y-108970233D02*
X179183695Y-108583185D01*
X178370895Y-108583185D01*
X179106285Y-109705623D02*
X179144990Y-109666919D01*
X179183695Y-109550804D01*
X179183695Y-109473395D01*
X179144990Y-109357280D01*
X179067580Y-109279871D01*
X178990171Y-109241166D01*
X178835352Y-109202461D01*
X178719238Y-109202461D01*
X178564419Y-109241166D01*
X178487009Y-109279871D01*
X178409600Y-109357280D01*
X178370895Y-109473395D01*
X178370895Y-109550804D01*
X178409600Y-109666919D01*
X178448304Y-109705623D01*
X178370895Y-110286195D02*
X178951466Y-110286195D01*
X179067580Y-110247490D01*
X179144990Y-110170080D01*
X179183695Y-110053966D01*
X179183695Y-109976557D01*
X179183695Y-111060290D02*
X179183695Y-110673242D01*
X178370895Y-110673242D01*
X179106285Y-111795680D02*
X179144990Y-111756976D01*
X179183695Y-111640861D01*
X179183695Y-111563452D01*
X179144990Y-111447338D01*
X179067580Y-111369928D01*
X178990171Y-111331223D01*
X178835352Y-111292519D01*
X178719238Y-111292519D01*
X178564419Y-111331223D01*
X178487009Y-111369928D01*
X178409600Y-111447338D01*
X178370895Y-111563452D01*
X178370895Y-111640861D01*
X178409600Y-111756976D01*
X178448304Y-111795680D01*
X178370895Y-112376252D02*
X178951466Y-112376252D01*
X179067580Y-112337547D01*
X179144990Y-112260138D01*
X179183695Y-112144023D01*
X179183695Y-112066614D01*
X179183695Y-113150347D02*
X179183695Y-112763300D01*
X178370895Y-112763300D01*
X179106285Y-113885738D02*
X179144990Y-113847033D01*
X179183695Y-113730919D01*
X179183695Y-113653509D01*
X179144990Y-113537395D01*
X179067580Y-113459985D01*
X178990171Y-113421280D01*
X178835352Y-113382576D01*
X178719238Y-113382576D01*
X178564419Y-113421280D01*
X178487009Y-113459985D01*
X178409600Y-113537395D01*
X178370895Y-113653509D01*
X178370895Y-113730919D01*
X178409600Y-113847033D01*
X178448304Y-113885738D01*
X178370895Y-114466309D02*
X178951466Y-114466309D01*
X179067580Y-114427604D01*
X179144990Y-114350195D01*
X179183695Y-114234080D01*
X179183695Y-114156671D01*
X179183695Y-115240404D02*
X179183695Y-114853357D01*
X178370895Y-114853357D01*
X179106285Y-115975795D02*
X179144990Y-115937090D01*
X179183695Y-115820976D01*
X179183695Y-115743566D01*
X179144990Y-115627452D01*
X179067580Y-115550042D01*
X178990171Y-115511338D01*
X178835352Y-115472633D01*
X178719238Y-115472633D01*
X178564419Y-115511338D01*
X178487009Y-115550042D01*
X178409600Y-115627452D01*
X178370895Y-115743566D01*
X178370895Y-115820976D01*
X178409600Y-115937090D01*
X178448304Y-115975795D01*
D11*
X150580876Y-125970695D02*
X150580876Y-125157895D01*
X150387352Y-125157895D01*
X150271238Y-125196600D01*
X150193828Y-125274009D01*
X150155123Y-125351419D01*
X150116419Y-125506238D01*
X150116419Y-125622352D01*
X150155123Y-125777171D01*
X150193828Y-125854580D01*
X150271238Y-125931990D01*
X150387352Y-125970695D01*
X150580876Y-125970695D01*
X149458438Y-125931990D02*
X149535847Y-125970695D01*
X149690666Y-125970695D01*
X149768076Y-125931990D01*
X149806780Y-125854580D01*
X149806780Y-125544942D01*
X149768076Y-125467533D01*
X149690666Y-125428828D01*
X149535847Y-125428828D01*
X149458438Y-125467533D01*
X149419733Y-125544942D01*
X149419733Y-125622352D01*
X149806780Y-125699761D01*
X149110095Y-125931990D02*
X149032685Y-125970695D01*
X148877866Y-125970695D01*
X148800457Y-125931990D01*
X148761752Y-125854580D01*
X148761752Y-125815876D01*
X148800457Y-125738466D01*
X148877866Y-125699761D01*
X148993980Y-125699761D01*
X149071390Y-125661057D01*
X149110095Y-125583647D01*
X149110095Y-125544942D01*
X149071390Y-125467533D01*
X148993980Y-125428828D01*
X148877866Y-125428828D01*
X148800457Y-125467533D01*
X148413409Y-125970695D02*
X148413409Y-125428828D01*
X148413409Y-125157895D02*
X148452114Y-125196600D01*
X148413409Y-125235304D01*
X148374704Y-125196600D01*
X148413409Y-125157895D01*
X148413409Y-125235304D01*
X147678019Y-125428828D02*
X147678019Y-126086809D01*
X147716723Y-126164219D01*
X147755428Y-126202923D01*
X147832838Y-126241628D01*
X147948952Y-126241628D01*
X148026361Y-126202923D01*
X147678019Y-125931990D02*
X147755428Y-125970695D01*
X147910247Y-125970695D01*
X147987657Y-125931990D01*
X148026361Y-125893285D01*
X148065066Y-125815876D01*
X148065066Y-125583647D01*
X148026361Y-125506238D01*
X147987657Y-125467533D01*
X147910247Y-125428828D01*
X147755428Y-125428828D01*
X147678019Y-125467533D01*
X147290971Y-125428828D02*
X147290971Y-125970695D01*
X147290971Y-125506238D02*
X147252266Y-125467533D01*
X147174857Y-125428828D01*
X147058742Y-125428828D01*
X146981333Y-125467533D01*
X146942628Y-125544942D01*
X146942628Y-125970695D01*
X145936304Y-125970695D02*
X145936304Y-125157895D01*
X145936304Y-125467533D02*
X145858895Y-125428828D01*
X145704076Y-125428828D01*
X145626666Y-125467533D01*
X145587961Y-125506238D01*
X145549257Y-125583647D01*
X145549257Y-125815876D01*
X145587961Y-125893285D01*
X145626666Y-125931990D01*
X145704076Y-125970695D01*
X145858895Y-125970695D01*
X145936304Y-125931990D01*
X145278323Y-125428828D02*
X145084800Y-125970695D01*
X144891276Y-125428828D02*
X145084800Y-125970695D01*
X145162209Y-126164219D01*
X145200914Y-126202923D01*
X145278323Y-126241628D01*
X143962361Y-125970695D02*
X143962361Y-125157895D01*
X143768838Y-125157895D01*
X143652723Y-125196600D01*
X143575314Y-125274009D01*
X143536609Y-125351419D01*
X143497904Y-125506238D01*
X143497904Y-125622352D01*
X143536609Y-125777171D01*
X143575314Y-125854580D01*
X143652723Y-125931990D01*
X143768838Y-125970695D01*
X143962361Y-125970695D01*
X143149561Y-125970695D02*
X143149561Y-125428828D01*
X143149561Y-125157895D02*
X143188266Y-125196600D01*
X143149561Y-125235304D01*
X143110857Y-125196600D01*
X143149561Y-125157895D01*
X143149561Y-125235304D01*
X142762514Y-125970695D02*
X142762514Y-125428828D01*
X142762514Y-125506238D02*
X142723809Y-125467533D01*
X142646400Y-125428828D01*
X142530285Y-125428828D01*
X142452876Y-125467533D01*
X142414171Y-125544942D01*
X142414171Y-125970695D01*
X142414171Y-125544942D02*
X142375466Y-125467533D01*
X142298057Y-125428828D01*
X142181942Y-125428828D01*
X142104533Y-125467533D01*
X142065828Y-125544942D01*
X142065828Y-125970695D01*
X141678780Y-125970695D02*
X141678780Y-125428828D01*
X141678780Y-125157895D02*
X141717485Y-125196600D01*
X141678780Y-125235304D01*
X141640076Y-125196600D01*
X141678780Y-125157895D01*
X141678780Y-125235304D01*
X141407847Y-125428828D02*
X141098209Y-125428828D01*
X141291733Y-125157895D02*
X141291733Y-125854580D01*
X141253028Y-125931990D01*
X141175619Y-125970695D01*
X141098209Y-125970695D01*
X140827276Y-125970695D02*
X140827276Y-125428828D01*
X140827276Y-125583647D02*
X140788571Y-125506238D01*
X140749866Y-125467533D01*
X140672457Y-125428828D01*
X140595047Y-125428828D01*
X140324114Y-125970695D02*
X140324114Y-125428828D01*
X140324114Y-125157895D02*
X140362819Y-125196600D01*
X140324114Y-125235304D01*
X140285409Y-125196600D01*
X140324114Y-125157895D01*
X140324114Y-125235304D01*
X140014476Y-125428828D02*
X139820952Y-125970695D01*
X139627428Y-125428828D02*
X139820952Y-125970695D01*
X139898361Y-126164219D01*
X139937066Y-126202923D01*
X140014476Y-126241628D01*
X138272761Y-125196600D02*
X138350171Y-125157895D01*
X138466285Y-125157895D01*
X138582400Y-125196600D01*
X138659809Y-125274009D01*
X138698514Y-125351419D01*
X138737219Y-125506238D01*
X138737219Y-125622352D01*
X138698514Y-125777171D01*
X138659809Y-125854580D01*
X138582400Y-125931990D01*
X138466285Y-125970695D01*
X138388876Y-125970695D01*
X138272761Y-125931990D01*
X138234057Y-125893285D01*
X138234057Y-125622352D01*
X138388876Y-125622352D01*
X137576076Y-125931990D02*
X137653485Y-125970695D01*
X137808304Y-125970695D01*
X137885714Y-125931990D01*
X137924419Y-125854580D01*
X137924419Y-125544942D01*
X137885714Y-125467533D01*
X137808304Y-125428828D01*
X137653485Y-125428828D01*
X137576076Y-125467533D01*
X137537371Y-125544942D01*
X137537371Y-125622352D01*
X137924419Y-125699761D01*
X137072914Y-125970695D02*
X137150323Y-125931990D01*
X137189028Y-125893285D01*
X137227733Y-125815876D01*
X137227733Y-125583647D01*
X137189028Y-125506238D01*
X137150323Y-125467533D01*
X137072914Y-125428828D01*
X136956800Y-125428828D01*
X136879390Y-125467533D01*
X136840685Y-125506238D01*
X136801980Y-125583647D01*
X136801980Y-125815876D01*
X136840685Y-125893285D01*
X136879390Y-125931990D01*
X136956800Y-125970695D01*
X137072914Y-125970695D01*
X136453638Y-125970695D02*
X136453638Y-125428828D01*
X136453638Y-125583647D02*
X136414933Y-125506238D01*
X136376228Y-125467533D01*
X136298819Y-125428828D01*
X136221409Y-125428828D01*
X135602133Y-125428828D02*
X135602133Y-126086809D01*
X135640838Y-126164219D01*
X135679542Y-126202923D01*
X135756952Y-126241628D01*
X135873066Y-126241628D01*
X135950476Y-126202923D01*
X135602133Y-125931990D02*
X135679542Y-125970695D01*
X135834361Y-125970695D01*
X135911771Y-125931990D01*
X135950476Y-125893285D01*
X135989180Y-125815876D01*
X135989180Y-125583647D01*
X135950476Y-125506238D01*
X135911771Y-125467533D01*
X135834361Y-125428828D01*
X135679542Y-125428828D01*
X135602133Y-125467533D01*
X135215085Y-125970695D02*
X135215085Y-125428828D01*
X135215085Y-125157895D02*
X135253790Y-125196600D01*
X135215085Y-125235304D01*
X135176380Y-125196600D01*
X135215085Y-125157895D01*
X135215085Y-125235304D01*
X134518400Y-125931990D02*
X134595809Y-125970695D01*
X134750628Y-125970695D01*
X134828038Y-125931990D01*
X134866742Y-125854580D01*
X134866742Y-125544942D01*
X134828038Y-125467533D01*
X134750628Y-125428828D01*
X134595809Y-125428828D01*
X134518400Y-125467533D01*
X134479695Y-125544942D01*
X134479695Y-125622352D01*
X134866742Y-125699761D01*
X134208761Y-125428828D02*
X134015238Y-125970695D01*
X133821714Y-125428828D01*
D12*
X160213523Y-59508571D02*
X159366857Y-59508571D01*
X159004000Y-60839047D02*
X160213523Y-60839047D01*
X160213523Y-58299047D01*
X159004000Y-58299047D01*
X157915428Y-60839047D02*
X157915428Y-59145714D01*
X157915428Y-59387619D02*
X157794476Y-59266666D01*
X157552571Y-59145714D01*
X157189714Y-59145714D01*
X156947809Y-59266666D01*
X156826857Y-59508571D01*
X156826857Y-60839047D01*
X156826857Y-59508571D02*
X156705904Y-59266666D01*
X156464000Y-59145714D01*
X156101142Y-59145714D01*
X155859238Y-59266666D01*
X155738285Y-59508571D01*
X155738285Y-60839047D01*
X154165904Y-60839047D02*
X154407809Y-60718095D01*
X154528761Y-60597142D01*
X154649714Y-60355238D01*
X154649714Y-59629523D01*
X154528761Y-59387619D01*
X154407809Y-59266666D01*
X154165904Y-59145714D01*
X153803047Y-59145714D01*
X153561142Y-59266666D01*
X153440190Y-59387619D01*
X153319238Y-59629523D01*
X153319238Y-60355238D01*
X153440190Y-60597142D01*
X153561142Y-60718095D01*
X153803047Y-60839047D01*
X154165904Y-60839047D01*
X152230666Y-59145714D02*
X152230666Y-61322857D01*
X152351619Y-61564761D01*
X152593523Y-61685714D01*
X152714476Y-61685714D01*
X152230666Y-58299047D02*
X152351619Y-58420000D01*
X152230666Y-58540952D01*
X152109714Y-58420000D01*
X152230666Y-58299047D01*
X152230666Y-58540952D01*
X151021142Y-60839047D02*
X151021142Y-59145714D01*
X151021142Y-58299047D02*
X151142095Y-58420000D01*
X151021142Y-58540952D01*
X150900190Y-58420000D01*
X151021142Y-58299047D01*
X151021142Y-58540952D01*
X150174476Y-59145714D02*
X149206857Y-59145714D01*
X149811619Y-60839047D02*
X149811619Y-58661904D01*
X149690666Y-58420000D01*
X149448761Y-58299047D01*
X149206857Y-58299047D01*
X148602095Y-59145714D02*
X147997333Y-60839047D01*
X147392571Y-59145714D02*
X147997333Y-60839047D01*
X148239238Y-61443809D01*
X148360190Y-61564761D01*
X148602095Y-61685714D01*
M02*
